<svg width="254" height="77" viewBox="0 0 254 77" fill="none" xmlns="http://www.w3.org/2000/svg">
<g clip-path="url(#clip0_1659_23265)">
<path fill-rule="evenodd" clip-rule="evenodd" d="M3.90126 27.24C6.6149 24.302 10.4229 22.6326 14.4109 22.6326H26.3109C32.4408 22.6326 38.3997 24.6633 43.266 28.4107L43.6875 28.7352C46.2536 30.7114 48.4169 33.166 50.0589 35.9653C52.342 39.8574 53.5462 44.2933 53.5462 48.8118V62.3821C53.5462 66.2373 51.9693 69.9228 49.1856 72.5743C43.947 77.5637 35.7898 77.7189 30.3672 72.9321L30.2375 72.8175C27.1769 70.1159 25.4224 66.2195 25.4224 62.1246V51.2958H14.1642C10.4076 51.2958 6.80492 49.7956 4.14861 47.1251C-1.2386 41.709 -1.39935 32.9789 3.78477 27.3662L3.90126 27.24ZM8.49118 31.7597L8.60767 31.6337C10.1061 30.0113 12.2088 29.0895 14.4109 29.0895H26.3109C31.0288 29.0895 35.6152 30.6526 39.3606 33.5368L39.7821 33.8613C41.693 35.3328 43.304 37.1607 44.5267 39.2453C46.2269 42.1436 47.1237 45.447 47.1237 48.8118V62.3821C47.1237 64.4643 46.272 66.4548 44.7686 67.8868C41.9392 70.5816 37.5335 70.6653 34.6049 68.0801L34.4752 67.9655C32.8033 66.4897 31.8449 64.3614 31.8449 62.1246V48.603C31.8449 46.5241 30.1687 44.8389 28.1009 44.8389H14.1642C12.111 44.8389 10.1419 44.019 8.69004 42.5593C5.74557 39.5991 5.65772 34.8275 8.49118 31.7597Z" fill="white"/>
<path fill-rule="evenodd" clip-rule="evenodd" d="M3.90126 27.24C6.6149 24.302 10.4229 22.6326 14.4109 22.6326H26.3109C32.4408 22.6326 38.3997 24.6633 43.266 28.4107L43.6875 28.7352C46.2536 30.7114 48.4169 33.166 50.0589 35.9653C52.342 39.8574 53.5462 44.2933 53.5462 48.8118V62.3821C53.5462 66.2373 51.9693 69.9228 49.1856 72.5743C43.947 77.5637 35.7898 77.7189 30.3672 72.9321L30.2375 72.8175C27.1769 70.1159 25.4224 66.2195 25.4224 62.1246V51.2958H14.1642C10.4076 51.2958 6.80492 49.7956 4.14861 47.1251C-1.2386 41.709 -1.39935 32.9789 3.78477 27.3662L3.90126 27.24ZM8.49118 31.7597L8.60767 31.6337C10.1061 30.0113 12.2088 29.0895 14.4109 29.0895H26.3109C31.0288 29.0895 35.6152 30.6526 39.3606 33.5368L39.7821 33.8613C41.693 35.3328 43.304 37.1607 44.5267 39.2453C46.2269 42.1436 47.1237 45.447 47.1237 48.8118V62.3821C47.1237 64.4643 46.272 66.4548 44.7686 67.8868C41.9392 70.5816 37.5335 70.6653 34.6049 68.0801L34.4752 67.9655C32.8033 66.4897 31.8449 64.3614 31.8449 62.1246V48.603C31.8449 46.5241 30.1687 44.8389 28.1009 44.8389H14.1642C12.111 44.8389 10.1419 44.019 8.69004 42.5593C5.74557 39.5991 5.65772 34.8275 8.49118 31.7597Z" fill="url(#paint0_linear_1659_23265)"/>
<path fill-rule="evenodd" clip-rule="evenodd" d="M74.9898 49.4775L74.8734 49.6035C72.1597 52.5415 68.3518 54.2111 64.3637 54.2111H52.4638C46.3339 54.2111 40.3749 52.1802 35.5086 48.433L39.414 43.3069C43.1594 46.1911 47.7459 47.7542 52.4638 47.7542H64.3637C66.566 47.7542 68.6686 46.8323 70.167 45.21L70.2834 45.0838C73.1169 42.0161 73.029 37.2446 70.0846 34.2844C68.6327 32.8247 66.6636 32.0047 64.6105 32.0047H50.6737C48.606 32.0047 46.9298 30.3196 46.9298 28.2407V14.719C46.9298 12.4822 45.9714 10.3539 44.2995 8.87808L44.1698 8.76357C41.2411 6.17828 36.8356 6.26204 34.0062 8.95684C32.5027 10.3888 31.6511 12.3794 31.6511 14.4615V28.0318C31.6511 31.3967 32.5478 34.7001 34.2479 37.5984C35.4708 39.6828 37.0817 41.5109 38.9926 42.9824L39.414 43.3069L35.5086 48.433L35.0872 48.1085C32.521 46.1323 30.3578 43.6775 28.7159 40.8784C26.4328 36.9863 25.2285 32.5504 25.2285 28.0318V14.4615C25.2285 10.6063 26.8053 6.92078 29.5892 4.26941C34.8278 -0.720076 42.9848 -0.875193 48.4074 3.91158L48.5371 4.02609C51.5978 6.72785 53.3524 10.6242 53.3524 14.719V25.5479H64.6105C68.3671 25.5479 71.9698 27.0481 74.6261 29.7186C80.0133 35.1347 80.174 43.8646 74.9898 49.4775Z" fill="white"/>
<path fill-rule="evenodd" clip-rule="evenodd" d="M74.9898 49.4775L74.8734 49.6035C72.1597 52.5415 68.3518 54.2111 64.3637 54.2111H52.4638C46.3339 54.2111 40.3749 52.1802 35.5086 48.433L39.414 43.3069C43.1594 46.1911 47.7459 47.7542 52.4638 47.7542H64.3637C66.566 47.7542 68.6686 46.8323 70.167 45.21L70.2834 45.0838C73.1169 42.0161 73.029 37.2446 70.0846 34.2844C68.6327 32.8247 66.6636 32.0047 64.6105 32.0047H50.6737C48.606 32.0047 46.9298 30.3196 46.9298 28.2407V14.719C46.9298 12.4822 45.9714 10.3539 44.2995 8.87808L44.1698 8.76357C41.2411 6.17828 36.8356 6.26204 34.0062 8.95684C32.5027 10.3888 31.6511 12.3794 31.6511 14.4615V28.0318C31.6511 31.3967 32.5478 34.7001 34.2479 37.5984C35.4708 39.6828 37.0817 41.5109 38.9926 42.9824L39.414 43.3069L35.5086 48.433L35.0872 48.1085C32.521 46.1323 30.3578 43.6775 28.7159 40.8784C26.4328 36.9863 25.2285 32.5504 25.2285 28.0318V14.4615C25.2285 10.6063 26.8053 6.92078 29.5892 4.26941C34.8278 -0.720076 42.9848 -0.875193 48.4074 3.91158L48.5371 4.02609C51.5978 6.72785 53.3524 10.6242 53.3524 14.719V25.5479H64.6105C68.3671 25.5479 71.9698 27.0481 74.6261 29.7186C80.0133 35.1347 80.174 43.8646 74.9898 49.4775Z" fill="url(#paint1_linear_1659_23265)"/>
<path d="M47.125 46.9766L53.355 47.8259V54.6216H47.125V46.9766Z" fill="url(#paint2_linear_1659_23265)"/>
<path d="M87.8281 24.6502C87.8281 21.4886 88.5085 18.6766 89.8692 16.2142C91.2299 13.7214 93.1198 11.791 95.5388 10.423C97.9881 9.02458 100.755 8.32538 103.839 8.32538C107.619 8.32538 110.855 9.32858 113.546 11.335C116.237 13.3414 118.036 16.0774 118.943 19.543H110.416C109.781 18.2054 108.874 17.187 107.695 16.4878C106.546 15.7886 105.23 15.439 103.748 15.439C101.36 15.439 99.4244 16.275 97.9428 17.947C96.4611 19.619 95.7203 21.8534 95.7203 24.6502C95.7203 27.447 96.4611 29.6814 97.9428 31.3534C99.4244 33.0254 101.36 33.8614 103.748 33.8614C105.23 33.8614 106.546 33.5118 107.695 32.8126C108.874 32.1134 109.781 31.095 110.416 29.7574H118.943C118.036 33.223 116.237 35.959 113.546 37.9654C110.855 39.9414 107.619 40.9294 103.839 40.9294C100.755 40.9294 97.9881 40.2454 95.5388 38.8774C93.1198 37.479 91.2299 35.5486 89.8692 33.0862C88.5085 30.6238 87.8281 27.8118 87.8281 24.6502ZM131.449 6.95738V40.7014H123.693V6.95738H131.449ZM140.971 12.6118C139.61 12.6118 138.491 12.2166 137.614 11.4262C136.767 10.6054 136.344 9.60218 136.344 8.41658C136.344 7.20058 136.767 6.19738 137.614 5.40698C138.491 4.58618 139.61 4.17578 140.971 4.17578C142.301 4.17578 143.39 4.58618 144.236 5.40698C145.113 6.19738 145.552 7.20058 145.552 8.41658C145.552 9.60218 145.113 10.6054 144.236 11.4262C143.39 12.2166 142.301 12.6118 140.971 12.6118ZM144.826 15.2566V40.7014H137.07V15.2566H144.826ZM165.868 14.983C168.831 14.983 171.19 15.9558 172.944 17.9014C174.728 19.8166 175.62 22.4614 175.62 25.8358V40.7014H167.909V26.8846C167.909 25.1822 167.471 23.8598 166.594 22.9174C165.717 21.975 164.537 21.5038 163.056 21.5038C161.574 21.5038 160.395 21.975 159.518 22.9174C158.641 23.8598 158.203 25.1822 158.203 26.8846V40.7014H150.447V15.2566H158.203V18.631C158.989 17.5062 160.047 16.6246 161.378 15.9862C162.708 15.3174 164.205 14.983 165.868 14.983ZM184.91 12.6118C183.55 12.6118 182.431 12.2166 181.554 11.4262C180.707 10.6054 180.284 9.60218 180.284 8.41658C180.284 7.20058 180.707 6.19738 181.554 5.40698C182.431 4.58618 183.55 4.17578 184.91 4.17578C186.241 4.17578 187.329 4.58618 188.176 5.40698C189.053 6.19738 189.491 7.20058 189.491 8.41658C189.491 9.60218 189.053 10.6054 188.176 11.4262C187.329 12.2166 186.241 12.6118 184.91 12.6118ZM188.766 15.2566V40.7014H181.01V15.2566H188.766ZM192.845 27.979C192.845 25.3342 193.374 23.0238 194.432 21.0478C195.521 19.0718 197.018 17.5518 198.923 16.4878C200.858 15.4238 203.065 14.8918 205.545 14.8918C208.72 14.8918 211.366 15.7278 213.482 17.3998C215.629 19.0718 217.035 21.4278 217.701 24.4678H209.446C208.75 22.5222 207.405 21.5494 205.409 21.5494C203.988 21.5494 202.854 22.1118 202.007 23.2366C201.16 24.331 200.737 25.9118 200.737 27.979C200.737 30.0462 201.16 31.6422 202.007 32.767C202.854 33.8614 203.988 34.4086 205.409 34.4086C207.405 34.4086 208.75 33.4358 209.446 31.4902H217.701C217.035 34.4694 215.629 36.8102 213.482 38.5126C211.335 40.215 208.69 41.0662 205.545 41.0662C203.065 41.0662 200.858 40.5342 198.923 39.4702C197.018 38.4062 195.521 36.8862 194.432 34.9102C193.374 32.9342 192.845 30.6238 192.845 27.979Z" fill="#193E74"/>
<path d="M108.296 49.0469V68.0621H105.193V55.0387L99.4242 68.0621H97.2741L91.4774 55.0387V68.0621H88.375V49.0469H91.7224L98.3626 63.9581L104.976 49.0469H108.296ZM111.339 60.456C111.339 58.9421 111.648 57.6014 112.265 56.4341C112.9 55.2667 113.752 54.3638 114.823 53.7254C115.911 53.0688 117.109 52.7405 118.415 52.7405C119.594 52.7405 120.62 52.9776 121.49 53.4518C122.379 53.9078 123.087 54.4824 123.613 55.1755V52.9867H126.743V68.0621H123.613V65.8186C123.087 66.5299 122.37 67.1227 121.463 67.597C120.556 68.0712 119.522 68.3083 118.361 68.3083C117.073 68.3083 115.893 67.98 114.823 67.3234C113.752 66.6485 112.9 65.7182 112.265 64.5326C111.648 63.3288 111.339 61.9699 111.339 60.456ZM123.613 60.5107C123.613 59.471 123.395 58.5682 122.96 57.8021C122.543 57.036 121.989 56.4523 121.3 56.051C120.61 55.6498 119.867 55.4491 119.068 55.4491C118.27 55.4491 117.526 55.6498 116.837 56.051C116.147 56.4341 115.585 57.0086 115.149 57.7747C114.732 58.5226 114.524 59.4163 114.524 60.456C114.524 61.4957 114.732 62.4077 115.149 63.192C115.585 63.9763 116.147 64.5782 116.837 64.9978C117.544 65.399 118.288 65.5997 119.068 65.5997C119.867 65.5997 120.61 65.399 121.3 64.9978C121.989 64.5965 122.543 64.0128 122.96 63.2467C123.395 62.4624 123.613 61.5504 123.613 60.5107ZM136.261 68.3083C135.081 68.3083 134.02 68.0986 133.076 67.679C132.151 67.2413 131.416 66.6576 130.872 65.928C130.328 65.1802 130.038 64.3502 130.001 63.4382H133.213C133.267 64.0766 133.566 64.6147 134.111 65.0525C134.673 65.472 135.372 65.6818 136.206 65.6818C137.077 65.6818 137.748 65.5176 138.22 65.1893C138.71 64.8427 138.955 64.405 138.955 63.876C138.955 63.3106 138.683 62.891 138.138 62.6174C137.612 62.3438 136.769 62.0429 135.607 61.7146C134.483 61.4045 133.566 61.1035 132.859 60.8117C132.151 60.5198 131.534 60.073 131.008 59.471C130.5 58.8691 130.246 58.0757 130.246 57.0907C130.246 56.2882 130.482 55.5586 130.954 54.9019C131.425 54.227 132.097 53.6981 132.968 53.315C133.857 52.932 134.873 52.7405 136.016 52.7405C137.721 52.7405 139.091 53.1782 140.125 54.0538C141.177 54.911 141.74 56.0875 141.812 57.5832H138.71C138.655 56.9083 138.383 56.3702 137.893 55.969C137.404 55.5677 136.741 55.367 135.907 55.367C135.09 55.367 134.464 55.5221 134.029 55.8322C133.594 56.1422 133.376 56.5526 133.376 57.0634C133.376 57.4646 133.521 57.8021 133.811 58.0757C134.102 58.3493 134.455 58.5682 134.873 58.7323C135.29 58.8782 135.907 59.0698 136.723 59.3069C137.812 59.5987 138.701 59.8997 139.39 60.2098C140.098 60.5016 140.706 60.9394 141.214 61.523C141.722 62.1067 141.985 62.8819 142.003 63.8486C142.003 64.7059 141.767 65.472 141.295 66.1469C140.823 66.8218 140.152 67.3507 139.281 67.7338C138.429 68.1168 137.422 68.3083 136.261 68.3083ZM148.974 55.5312V63.876C148.974 64.4414 149.101 64.8518 149.355 65.1072C149.628 65.3443 150.081 65.4629 150.716 65.4629H152.622V68.0621H150.172C148.775 68.0621 147.704 67.7338 146.961 67.0771C146.217 66.4205 145.845 65.3534 145.845 63.876V55.5312H144.076V52.9867H145.845V49.2384H148.974V52.9867H152.622V55.5312H148.974ZM169.224 60.155C169.224 60.7205 169.188 61.2312 169.115 61.6872H157.658C157.749 62.891 158.193 63.8578 158.991 64.5874C159.79 65.317 160.769 65.6818 161.931 65.6818C163.6 65.6818 164.779 64.9795 165.468 63.575H168.816C168.362 64.9613 167.537 66.1013 166.339 66.995C165.16 67.8706 163.69 68.3083 161.931 68.3083C160.497 68.3083 159.209 67.9891 158.066 67.3507C156.941 66.6941 156.052 65.7821 155.399 64.6147C154.764 63.4291 154.447 62.0611 154.447 60.5107C154.447 58.9603 154.755 57.6014 155.372 56.4341C156.007 55.2485 156.887 54.3365 158.012 53.6981C159.155 53.0597 160.461 52.7405 161.931 52.7405C163.346 52.7405 164.607 53.0506 165.713 53.6707C166.82 54.2909 167.682 55.1664 168.299 56.2973C168.916 57.4099 169.224 58.6958 169.224 60.155ZM165.985 59.1701C165.967 58.021 165.559 57.0998 164.761 56.4067C163.963 55.7136 162.974 55.367 161.794 55.367C160.724 55.367 159.808 55.7136 159.046 56.4067C158.284 57.0816 157.83 58.0027 157.685 59.1701H165.985ZM175.379 55.1755C175.832 54.4094 176.431 53.8166 177.175 53.3971C177.937 52.9594 178.835 52.7405 179.869 52.7405V55.969H179.08C177.864 55.969 176.939 56.279 176.304 56.8992C175.687 57.5194 175.379 58.5955 175.379 60.1277V68.0621H172.276V52.9867H175.379V55.1755Z" fill="#193E74"/>
</g>
<defs>
<linearGradient id="paint0_linear_1659_23265" x1="39.3873" y1="0.421875" x2="39.3873" y2="76.4218" gradientUnits="userSpaceOnUse">
<stop stop-color="#F0588D"/>
<stop offset="1" stop-color="#F79C86"/>
</linearGradient>
<linearGradient id="paint1_linear_1659_23265" x1="39.3873" y1="0.421875" x2="39.3873" y2="76.4218" gradientUnits="userSpaceOnUse">
<stop stop-color="#F0588D"/>
<stop offset="1" stop-color="#F79C86"/>
</linearGradient>
<linearGradient id="paint2_linear_1659_23265" x1="50.24" y1="46.9766" x2="50.24" y2="54.6216" gradientUnits="userSpaceOnUse">
<stop stop-color="#F0588D"/>
<stop offset="1" stop-color="#F79C86"/>
</linearGradient>
<clipPath id="clip0_1659_23265">
<rect width="254" height="76" fill="white" transform="translate(0 0.421875)"/>
</clipPath>
</defs>
</svg>
