<svg width="158" height="47" viewBox="0 0 158 47" fill="none" xmlns="http://www.w3.org/2000/svg">
<g clip-path="url(#clip0_1659_23127)">
<g filter="url(#filter0_d_1659_23127)">
<path fill-rule="evenodd" clip-rule="evenodd" d="M2.42554 16.5849C4.1127 14.768 6.48023 13.7356 8.95971 13.7356H16.3584C20.1695 13.7356 23.8743 14.9915 26.8999 17.3089L27.162 17.5096C28.7573 18.7317 30.1024 20.2497 31.1232 21.9808C32.5427 24.3878 33.2914 27.1311 33.2914 29.9254V38.3176C33.2914 40.7017 32.311 42.9809 30.5803 44.6206C27.3233 47.7062 22.2517 47.8022 18.8803 44.8419L18.7996 44.771C16.8968 43.1003 15.8059 40.6907 15.8059 38.1583V31.4616H8.80634C6.47076 31.4616 4.23084 30.5338 2.57932 28.8823C-0.770078 25.5329 -0.870021 20.134 2.35311 16.663L2.42554 16.5849ZM5.27924 19.38L5.35167 19.3021C6.28328 18.2988 7.59059 17.7287 8.95971 17.7287H16.3584C19.2916 17.7287 22.1431 18.6953 24.4718 20.479L24.7338 20.6797C25.9219 21.5897 26.9235 22.7201 27.6837 24.0093C28.7408 25.8016 29.2983 27.8445 29.2983 29.9254V38.3176C29.2983 39.6053 28.7688 40.8362 27.8341 41.7218C26.0749 43.3883 23.3358 43.4401 21.515 41.8413L21.4344 41.7705C20.3949 40.8578 19.799 39.5416 19.799 38.1583V29.7963C19.799 28.5106 18.7569 27.4685 17.4712 27.4685H8.80634C7.5298 27.4685 6.30553 26.9614 5.40288 26.0587C3.57221 24.2281 3.51758 21.2772 5.27924 19.38Z" fill="url(#paint0_linear_1659_23127)"/>
<path fill-rule="evenodd" clip-rule="evenodd" d="M46.6238 30.337L46.5514 30.415C44.8642 32.2319 42.4967 33.2644 40.0172 33.2644H32.6187C28.8075 33.2644 25.1026 32.0085 22.077 29.6911L24.5051 26.521C26.8338 28.3047 29.6854 29.2713 32.6187 29.2713H40.0172C41.3864 29.2713 42.6937 28.7012 43.6253 27.6979L43.6977 27.6199C45.4593 25.7228 45.4047 22.7719 43.5741 20.9413C42.6714 20.0386 41.4471 19.5315 40.1706 19.5315H31.5057C30.2202 19.5315 29.178 18.4894 29.178 17.2037V8.84164C29.178 7.45839 28.5821 6.14217 27.5427 5.2295L27.462 5.15868C25.6411 3.55988 22.9021 3.61168 21.143 5.2782C20.2082 6.16377 19.6787 7.39476 19.6787 8.68241V17.0746C19.6787 19.1555 20.2362 21.1984 21.2933 22.9908C22.0535 24.2798 23.0551 25.4103 24.2432 26.3203L24.5051 26.521L22.077 29.6911L21.8151 29.4904C20.2196 28.2683 18.8746 26.7502 17.8538 25.0192C16.4343 22.6122 15.6856 19.8689 15.6856 17.0746V8.68241C15.6856 6.29828 16.6659 4.01906 18.3967 2.3794C21.6537 -0.706206 26.7252 -0.802134 30.0966 2.1581L30.1773 2.22892C32.0802 3.89975 33.1711 6.30934 33.1711 8.84164V15.5384H40.1706C42.5062 15.5384 44.7462 16.4662 46.3977 18.1177C49.7471 21.4671 49.847 26.8659 46.6238 30.337Z" fill="url(#paint1_linear_1659_23127)"/>
<path d="M29.2977 28.79L33.171 29.3152V33.5178H29.2977V28.79Z" fill="url(#paint2_linear_1659_23127)"/>
</g>
<path d="M54.6094 14.9821C54.6094 13.0269 55.0324 11.2879 55.8784 9.76511C56.7244 8.22351 57.8994 7.02971 59.4034 6.18371C60.9262 5.31891 62.6464 4.88651 64.564 4.88651C66.9141 4.88651 68.9257 5.50691 70.5989 6.74771C72.272 7.98851 73.3907 9.68051 73.9547 11.8237H68.653C68.2583 10.9965 67.6943 10.3667 66.961 9.93431C66.2467 9.50191 65.4289 9.28571 64.5076 9.28571C63.0224 9.28571 61.8192 9.80271 60.898 10.8367C59.9768 11.8707 59.5162 13.2525 59.5162 14.9821C59.5162 16.7117 59.9768 18.0935 60.898 19.1275C61.8192 20.1615 63.0224 20.6785 64.5076 20.6785C65.4289 20.6785 66.2467 20.4623 66.961 20.0299C67.6943 19.5975 68.2583 18.9677 68.653 18.1405H73.9547C73.3907 20.2837 72.272 21.9757 70.5989 23.2165C68.9257 24.4385 66.9141 25.0495 64.564 25.0495C62.6464 25.0495 60.9262 24.6265 59.4034 23.7805C57.8994 22.9157 56.7244 21.7219 55.8784 20.1991C55.0324 18.6763 54.6094 16.9373 54.6094 14.9821ZM81.7299 4.04051V24.9085H76.9077V4.04051H81.7299ZM87.6497 7.53731C86.8037 7.53731 86.1081 7.29291 85.5629 6.80411C85.0365 6.29651 84.7733 5.67611 84.7733 4.94291C84.7733 4.19091 85.0365 3.57051 85.5629 3.08171C86.1081 2.57411 86.8037 2.32031 87.6497 2.32031C88.4769 2.32031 89.1537 2.57411 89.6801 3.08171C90.2253 3.57051 90.4979 4.19091 90.4979 4.94291C90.4979 5.67611 90.2253 6.29651 89.6801 6.80411C89.1537 7.29291 88.4769 7.53731 87.6497 7.53731ZM90.0467 9.17291V24.9085H85.2245V9.17291H90.0467ZM103.129 9.00371C104.972 9.00371 106.438 9.60531 107.528 10.8085C108.638 11.9929 109.192 13.6285 109.192 15.7153V24.9085H104.398V16.3639C104.398 15.3111 104.126 14.4933 103.58 13.9105C103.035 13.3277 102.302 13.0363 101.381 13.0363C100.46 13.0363 99.7265 13.3277 99.1813 13.9105C98.6361 14.4933 98.3635 15.3111 98.3635 16.3639V24.9085H93.5413V9.17291H98.3635V11.2597C98.8523 10.5641 99.5103 10.0189 100.337 9.62411C101.165 9.21051 102.095 9.00371 103.129 9.00371ZM114.969 7.53731C114.123 7.53731 113.427 7.29291 112.882 6.80411C112.355 6.29651 112.092 5.67611 112.092 4.94291C112.092 4.19091 112.355 3.57051 112.882 3.08171C113.427 2.57411 114.123 2.32031 114.969 2.32031C115.796 2.32031 116.473 2.57411 116.999 3.08171C117.544 3.57051 117.817 4.19091 117.817 4.94291C117.817 5.67611 117.544 6.29651 116.999 6.80411C116.473 7.29291 115.796 7.53731 114.969 7.53731ZM117.366 9.17291V24.9085H112.543V9.17291H117.366ZM119.902 17.0407C119.902 15.4051 120.231 13.9763 120.889 12.7543C121.565 11.5323 122.496 10.5923 123.68 9.93431C124.884 9.27631 126.256 8.94731 127.798 8.94731C129.772 8.94731 131.417 9.46431 132.733 10.4983C134.067 11.5323 134.942 12.9893 135.355 14.8693H130.223C129.79 13.6661 128.954 13.0645 127.713 13.0645C126.829 13.0645 126.124 13.4123 125.598 14.1079C125.072 14.7847 124.808 15.7623 124.808 17.0407C124.808 18.3191 125.072 19.3061 125.598 20.0017C126.124 20.6785 126.829 21.0169 127.713 21.0169C128.954 21.0169 129.79 20.4153 130.223 19.2121H135.355C134.942 21.0545 134.067 22.5021 132.733 23.5549C131.398 24.6077 129.753 25.1341 127.798 25.1341C126.256 25.1341 124.884 24.8051 123.68 24.1471C122.496 23.4891 121.565 22.5491 120.889 21.3271C120.231 20.1051 119.902 18.6763 119.902 17.0407Z" fill="white"/>
<path d="M67.3309 30.0703V41.8297H65.4019V33.7758L61.8149 41.8297H60.4782L56.8742 33.7758V41.8297H54.9453V30.0703H57.0265L61.155 39.2917L65.2666 30.0703H67.3309ZM69.2231 37.126C69.2231 36.1897 69.4148 35.3606 69.7984 34.6387C70.1932 33.9168 70.7233 33.3584 71.3888 32.9636C72.0656 32.5576 72.8101 32.3545 73.6223 32.3545C74.3555 32.3545 74.9928 32.5012 75.5342 32.7944C76.087 33.0764 76.5269 33.4318 76.854 33.8604V32.5068H78.7998V41.8297H76.854V40.4423C76.5269 40.8822 76.0813 41.2488 75.5173 41.5421C74.9533 41.8354 74.3104 41.982 73.5884 41.982C72.7875 41.982 72.0543 41.779 71.3888 41.3729C70.7233 40.9555 70.1932 40.3802 69.7984 39.647C69.4148 38.9026 69.2231 38.0622 69.2231 37.126ZM76.854 37.1598C76.854 36.5168 76.7186 35.9585 76.4479 35.4847C76.1885 35.011 75.8444 34.65 75.4158 34.4018C74.9872 34.1537 74.5247 34.0296 74.0284 34.0296C73.532 34.0296 73.0695 34.1537 72.6409 34.4018C72.2123 34.6387 71.8626 34.994 71.5919 35.4678C71.3324 35.9303 71.2027 36.483 71.2027 37.126C71.2027 37.7689 71.3324 38.3329 71.5919 38.818C71.8626 39.303 72.2123 39.6752 72.6409 39.9347C73.0808 40.1828 73.5433 40.3069 74.0284 40.3069C74.5247 40.3069 74.9872 40.1828 75.4158 39.9347C75.8444 39.6865 76.1885 39.3256 76.4479 38.8518C76.7186 38.3668 76.854 37.8028 76.854 37.1598ZM84.7173 41.982C83.9841 41.982 83.3242 41.8523 82.7376 41.5928C82.1624 41.3221 81.7055 40.9612 81.3671 40.51C81.0287 40.0475 80.8482 39.5342 80.8257 38.9702H82.8222C82.8561 39.365 83.0422 39.6978 83.3806 39.9685C83.7303 40.228 84.1646 40.3577 84.6834 40.3577C85.2249 40.3577 85.6422 40.2562 85.9355 40.0531C86.2401 39.8388 86.3924 39.5681 86.3924 39.241C86.3924 38.8913 86.2232 38.6318 85.8848 38.4626C85.5576 38.2934 85.0331 38.1073 84.3112 37.9043C83.6118 37.7125 83.0422 37.5264 82.6023 37.3459C82.1624 37.1654 81.7788 36.8891 81.4517 36.5168C81.1359 36.1446 80.978 35.6539 80.978 35.0448C80.978 34.5485 81.1246 34.0973 81.4179 33.6912C81.7112 33.2738 82.1285 32.9467 82.67 32.7098C83.2227 32.473 83.8544 32.3545 84.565 32.3545C85.6253 32.3545 86.477 32.6252 87.1199 33.1667C87.7742 33.6968 88.1238 34.4244 88.169 35.3494H86.2401C86.2062 34.932 86.037 34.5992 85.7325 34.3511C85.4279 34.1029 85.0162 33.9788 84.4973 33.9788C83.9897 33.9788 83.6006 34.0747 83.3298 34.2665C83.0591 34.4582 82.9238 34.712 82.9238 35.0279C82.9238 35.276 83.014 35.4847 83.1945 35.6539C83.375 35.8231 83.5949 35.9585 83.8544 36.06C84.1138 36.1502 84.4973 36.2687 85.0049 36.4153C85.6817 36.5958 86.2344 36.7819 86.6631 36.9737C87.103 37.1542 87.4809 37.4249 87.7967 37.7858C88.1126 38.1468 88.2761 38.6262 88.2874 39.224C88.2874 39.7542 88.1408 40.228 87.8475 40.6453C87.5542 41.0627 87.1368 41.3898 86.5954 41.6267C86.0652 41.8636 85.4392 41.982 84.7173 41.982ZM92.6219 34.0804V39.241C92.6219 39.5906 92.7009 39.8444 92.8588 40.0024C93.028 40.149 93.31 40.2223 93.7048 40.2223H94.8896V41.8297H93.3664C92.4978 41.8297 91.8323 41.6267 91.3698 41.2206C90.9074 40.8145 90.6761 40.1546 90.6761 39.241V34.0804H89.5763V32.5068H90.6761V30.1888H92.6219V32.5068H94.8896V34.0804H92.6219ZM105.212 36.9398C105.212 37.2895 105.189 37.6054 105.144 37.8874H98.0207C98.0771 38.6318 98.3535 39.2297 98.8498 39.6809C99.3461 40.1321 99.9552 40.3577 100.677 40.3577C101.715 40.3577 102.448 39.9234 102.877 39.0548H104.958C104.676 39.9121 104.163 40.6171 103.418 41.1698C102.685 41.7113 101.771 41.982 100.677 41.982C99.786 41.982 98.9852 41.7846 98.2745 41.3898C97.5752 40.9837 97.0224 40.4197 96.6164 39.6978C96.2216 38.9646 96.0242 38.1186 96.0242 37.1598C96.0242 36.201 96.2159 35.3606 96.5994 34.6387C96.9942 33.9055 97.5413 33.3415 98.2407 32.9467C98.9513 32.5519 99.7635 32.3545 100.677 32.3545C101.557 32.3545 102.341 32.5463 103.029 32.9298C103.717 33.3133 104.253 33.8548 104.636 34.5541C105.02 35.2422 105.212 36.0374 105.212 36.9398ZM103.198 36.3307C103.187 35.6201 102.933 35.0504 102.437 34.6218C101.941 34.1932 101.326 33.9788 100.593 33.9788C99.927 33.9788 99.3574 34.1932 98.8836 34.6218C98.4099 35.0392 98.1279 35.6088 98.0376 36.3307H103.198ZM109.038 33.8604C109.32 33.3866 109.693 33.02 110.155 32.7606C110.629 32.4899 111.187 32.3545 111.83 32.3545V34.3511H111.34C110.584 34.3511 110.009 34.5428 109.614 34.9264C109.23 35.3099 109.038 35.9754 109.038 36.9229V41.8297H107.11V32.5068H109.038V33.8604Z" fill="white"/>
</g>
<defs>
<filter id="filter0_d_1659_23127" x="0" y="0" width="48.9766" height="47" filterUnits="userSpaceOnUse" color-interpolation-filters="sRGB">
<feFlood flood-opacity="0" result="BackgroundImageFix"/>
<feColorMatrix in="SourceAlpha" type="matrix" values="0 0 0 0 0 0 0 0 0 0 0 0 0 0 0 0 0 0 127 0" result="hardAlpha"/>
<feOffset/>
<feComposite in2="hardAlpha" operator="out"/>
<feColorMatrix type="matrix" values="0 0 0 0 0.733333 0 0 0 0 0.754386 0 0 0 0 1 0 0 0 0.2 0"/>
<feBlend mode="normal" in2="BackgroundImageFix" result="effect1_dropShadow_1659_23127"/>
<feBlend mode="normal" in="SourceGraphic" in2="effect1_dropShadow_1659_23127" result="shape"/>
</filter>
<linearGradient id="paint0_linear_1659_23127" x1="24.4885" y1="0" x2="24.4885" y2="47" gradientUnits="userSpaceOnUse">
<stop stop-color="#F0588D"/>
<stop offset="1" stop-color="#F79C86"/>
</linearGradient>
<linearGradient id="paint1_linear_1659_23127" x1="24.4885" y1="0" x2="24.4885" y2="47" gradientUnits="userSpaceOnUse">
<stop stop-color="#F0588D"/>
<stop offset="1" stop-color="#F79C86"/>
</linearGradient>
<linearGradient id="paint2_linear_1659_23127" x1="24.4885" y1="0" x2="24.4885" y2="47" gradientUnits="userSpaceOnUse">
<stop stop-color="#F0588D"/>
<stop offset="1" stop-color="#F79C86"/>
</linearGradient>
<clipPath id="clip0_1659_23127">
<rect width="157.92" height="47" fill="white"/>
</clipPath>
</defs>
</svg>
