<svg width="400" height="120" viewBox="0 0 400 120" fill="none" xmlns="http://www.w3.org/2000/svg">
<path d="M66.3259 47.4649L66.9819 47.9679C70.4669 50.6369 73.4049 53.9539 75.6359 57.7359C78.7369 62.9939 80.3719 68.9869 80.3719 75.0909V96.1079C80.3719 100.706 78.4819 105.101 75.1439 108.263C68.8629 114.214 59.0829 114.398 52.5809 108.69L52.3789 108.513C48.6949 105.278 46.5829 100.612 46.5829 95.7089V74.7679C46.5829 74.3099 46.2119 73.9379 45.7539 73.9379H24.0539C19.5309 73.9379 15.1929 72.1419 11.9949 68.9439C5.50895 62.4569 5.31496 52.0019 11.5569 45.2799L11.7379 45.0849C15.0169 41.5539 19.6189 39.5469 24.4379 39.5469H42.9669C51.4119 39.5469 59.6209 42.3299 66.3259 47.4649ZM66.3259 47.4649L63.3319 51.3729" stroke="#EBF800" stroke-width="10"/>
<path d="M74.0722 9.30996L74.2743 9.48696V9.48797C77.9583 12.722 80.0702 17.388 80.0702 22.291V43.232C80.0702 43.69 80.4422 44.062 80.9002 44.062H102.6C107.123 44.062 111.46 45.858 114.658 49.056C121.145 55.543 121.338 65.998 115.097 72.72L114.915 72.915C111.636 76.446 107.035 78.453 102.215 78.453H83.6873C75.2423 78.453 67.0322 75.67 60.3282 70.535L59.6722 70.032C56.1862 67.363 53.2482 64.046 51.0182 60.264C47.9172 55.006 46.2812 49.013 46.2812 42.909V21.892C46.2812 17.294 48.1722 12.899 51.5092 9.73696C57.7902 3.78596 67.5712 3.60096 74.0722 9.30996ZM74.0722 9.30996L70.7733 13.067" stroke="#EBF800" stroke-width="10"/>
<path d="M175.7 75.4739C170.933 75.4739 166.511 74.7269 162.433 73.2339C158.412 71.6829 154.909 69.4999 151.922 66.6859C148.993 63.8719 146.695 60.5689 145.03 56.7779C143.364 52.9299 142.531 48.7089 142.531 44.1139C142.531 39.5189 143.364 35.3259 145.03 31.5349C146.695 27.6869 148.993 24.3559 151.922 21.5419C154.909 18.7269 158.412 16.5729 162.433 15.0799C166.511 13.5289 170.933 12.7539 175.7 12.7539C181.272 12.7539 186.24 13.7299 190.605 15.6829C195.027 17.6359 198.703 20.4499 201.633 24.1259L190.777 33.9479C188.824 31.6499 186.67 29.8979 184.316 28.6919C182.018 27.4859 179.434 26.8829 176.562 26.8829C174.092 26.8829 171.823 27.2849 169.756 28.0889C167.688 28.8929 165.907 30.0709 164.414 31.6209C162.978 33.1149 161.83 34.9239 160.968 37.0489C160.164 39.1739 159.762 41.5289 159.762 44.1139C159.762 46.6979 160.164 49.0529 160.968 51.1779C161.83 53.3039 162.978 55.1409 164.414 56.6919C165.907 58.1859 167.688 59.3339 169.756 60.1379C171.823 60.9419 174.092 61.3449 176.562 61.3449C179.434 61.3449 182.018 60.7409 184.316 59.5349C186.67 58.3289 188.824 56.5769 190.777 54.2799L201.633 64.1009C198.703 67.7199 195.027 70.5339 190.605 72.5439C186.24 74.4969 181.272 75.4739 175.7 75.4739Z" fill="white"/>
<path d="M208.461 74.2678V10.3418H224.83V74.2678H208.461Z" fill="white"/>
<path d="M235.473 74.268V27.572H251.842V74.268H235.473ZM243.658 22.403C240.671 22.403 238.259 21.57 236.421 19.905C234.583 18.239 233.664 16.171 233.664 13.702C233.664 11.232 234.583 9.164 236.421 7.498C238.259 5.833 240.671 5 243.658 5C246.644 5 249.057 5.804 250.895 7.412C252.732 8.963 253.651 10.973 253.651 13.443C253.651 16.028 252.732 18.182 250.895 19.905C249.114 21.57 246.702 22.403 243.658 22.403Z" fill="white"/>
<path d="M292.889 26.7969C296.508 26.7969 299.782 27.5439 302.711 29.0369C305.64 30.4729 307.938 32.7129 309.603 35.7569C311.326 38.8009 312.188 42.7349 312.188 47.5599V74.2679H295.819V50.2309C295.819 46.8989 295.129 44.4869 293.751 42.9939C292.43 41.4429 290.563 40.6679 288.151 40.6679C286.428 40.6679 284.848 41.0699 283.413 41.8739C281.977 42.6199 280.857 43.7979 280.053 45.4059C279.248 47.0139 278.846 49.1109 278.846 51.6949V74.2679H262.477V27.5719H278.071V40.8399L275.056 36.9629C276.836 33.5739 279.277 31.0469 282.379 29.3809C285.48 27.6579 288.984 26.7969 292.889 26.7969Z" fill="white"/>
<path d="M322.465 74.268V27.572H338.834V74.268H322.465ZM330.65 22.403C327.663 22.403 325.251 21.57 323.413 19.905C321.575 18.239 320.656 16.171 320.656 13.702C320.656 11.232 321.575 9.164 323.413 7.498C325.251 5.833 327.663 5 330.65 5C333.636 5 336.049 5.804 337.887 7.412C339.725 8.963 340.643 10.973 340.643 13.443C340.643 16.028 339.725 18.182 337.887 19.905C336.106 21.57 333.694 22.403 330.65 22.403Z" fill="white"/>
<path d="M373.341 75.0429C368.172 75.0429 363.548 74.0089 359.47 71.9409C355.45 69.8739 352.291 67.0309 349.993 63.4119C347.696 59.7359 346.547 55.5429 346.547 50.8339C346.547 46.1239 347.696 41.9599 349.993 38.3409C352.291 34.7229 355.45 31.9089 359.47 29.8979C363.548 27.8309 368.172 26.7969 373.341 26.7969C378.625 26.7969 383.191 27.9169 387.039 30.1569C390.887 32.3969 393.616 35.5559 395.224 39.6339L382.559 46.0949C381.468 43.9129 380.118 42.3329 378.51 41.3569C376.902 40.3229 375.15 39.8059 373.255 39.8059C371.359 39.8059 369.636 40.2369 368.085 41.0979C366.535 41.9599 365.3 43.2239 364.381 44.8889C363.519 46.4969 363.089 48.4789 363.089 50.8339C363.089 53.2459 363.519 55.2849 364.381 56.9509C365.3 58.6159 366.535 59.8799 368.085 60.7409C369.636 61.6029 371.359 62.0339 373.255 62.0339C375.15 62.0339 376.902 61.5459 378.51 60.5689C380.118 59.5349 381.468 57.9269 382.559 55.7449L395.224 62.2059C393.616 66.2839 390.887 69.4429 387.039 71.6829C383.191 73.9229 378.625 75.0429 373.341 75.0429Z" fill="white"/>
<path d="M145.328 114.473V76.2778H149.802L166.935 105.142H164.535L181.449 76.2778H185.924L185.978 114.473H180.74L180.686 84.5168H181.941L166.881 109.835H164.371L149.202 84.5168H150.566V114.473H145.328Z" fill="white" fill-opacity="0.5"/>
<path d="M214.634 114.473V108.361L214.361 107.216V96.7943C214.361 94.5753 213.706 92.8653 212.396 91.6653C211.123 90.4283 209.195 89.8103 206.613 89.8103C204.903 89.8103 203.23 90.1013 201.593 90.6833C199.956 91.2283 198.574 91.9742 197.446 92.9202L195.263 88.9913C196.755 87.7913 198.537 86.8813 200.611 86.2633C202.72 85.6083 204.921 85.2812 207.213 85.2812C211.178 85.2812 214.233 86.2453 216.38 88.1733C218.526 90.1013 219.599 93.0473 219.599 97.0123V114.473H214.634ZM205.139 114.8C202.993 114.8 201.102 114.436 199.465 113.709C197.864 112.981 196.628 111.981 195.754 110.708C194.881 109.398 194.445 107.925 194.445 106.288C194.445 104.724 194.809 103.305 195.536 102.032C196.3 100.759 197.519 99.7402 199.192 98.9762C200.902 98.2132 203.193 97.8313 206.067 97.8313H215.234V101.596H206.285C203.666 101.596 201.902 102.032 200.993 102.905C200.083 103.778 199.629 104.833 199.629 106.07C199.629 107.488 200.192 108.634 201.32 109.507C202.448 110.344 204.012 110.762 206.013 110.762C207.977 110.762 209.686 110.326 211.142 109.453C212.633 108.58 213.706 107.307 214.361 105.633L215.398 109.234C214.706 110.944 213.488 112.308 211.742 113.327C209.996 114.309 207.795 114.8 205.139 114.8Z" fill="white" fill-opacity="0.5"/>
<path d="M237.582 114.8C235.181 114.8 232.89 114.473 230.707 113.818C228.561 113.163 226.87 112.363 225.633 111.417L227.815 107.27C229.052 108.107 230.58 108.816 232.399 109.398C234.218 109.98 236.073 110.271 237.964 110.271C240.401 110.271 242.147 109.926 243.202 109.234C244.294 108.543 244.839 107.579 244.839 106.343C244.839 105.433 244.512 104.724 243.857 104.215C243.202 103.705 242.329 103.323 241.238 103.069C240.183 102.814 239.001 102.596 237.691 102.414C236.382 102.196 235.072 101.941 233.763 101.65C232.453 101.323 231.253 100.886 230.162 100.341C229.07 99.7593 228.197 98.9763 227.543 97.9943C226.888 96.9763 226.56 95.6303 226.56 93.9573C226.56 92.2113 227.051 90.6833 228.034 89.3733C229.016 88.0643 230.398 87.0633 232.18 86.3723C233.999 85.6453 236.145 85.2812 238.619 85.2812C240.511 85.2812 242.42 85.5172 244.348 85.9902C246.313 86.4272 247.913 87.0633 249.15 87.9003L246.913 92.0473C245.603 91.1743 244.239 90.5743 242.82 90.2463C241.402 89.9193 239.983 89.7553 238.564 89.7553C236.273 89.7553 234.563 90.1373 233.435 90.9013C232.308 91.6283 231.744 92.5743 231.744 93.7383C231.744 94.7203 232.071 95.4843 232.726 96.0303C233.417 96.5393 234.29 96.9393 235.345 97.2303C236.436 97.5213 237.637 97.7763 238.946 97.9943C240.256 98.1763 241.565 98.4313 242.875 98.7583C244.185 99.0493 245.367 99.4683 246.422 100.013C247.513 100.559 248.386 101.323 249.041 102.305C249.732 103.287 250.077 104.597 250.077 106.233C250.077 107.979 249.568 109.489 248.55 110.762C247.531 112.035 246.094 113.036 244.239 113.763C242.384 114.454 240.165 114.8 237.582 114.8Z" fill="white" fill-opacity="0.5"/>
<path d="M266.555 114.8C263.644 114.8 261.389 114.018 259.789 112.454C258.188 110.89 257.388 108.652 257.388 105.742V79.2241H262.626V105.524C262.626 107.088 263.008 108.289 263.772 109.125C264.572 109.962 265.7 110.38 267.155 110.38C268.792 110.38 270.156 109.926 271.247 109.016L272.884 112.781C272.084 113.472 271.12 113.982 269.992 114.309C268.901 114.636 267.755 114.8 266.555 114.8ZM252.477 89.8641V85.5541H270.92V89.8641H252.477Z" fill="white" fill-opacity="0.5"/>
<path d="M291.137 114.8C288.045 114.8 285.317 114.163 282.952 112.89C280.624 111.617 278.805 109.871 277.496 107.652C276.223 105.433 275.586 102.887 275.586 100.013C275.586 97.1393 276.204 94.5933 277.441 92.3743C278.714 90.1553 280.442 88.4273 282.625 87.1913C284.844 85.9173 287.335 85.2812 290.1 85.2812C292.901 85.2812 295.375 85.8993 297.521 87.1363C299.667 88.3733 301.34 90.1193 302.541 92.3743C303.777 94.5933 304.396 97.1943 304.396 100.177C304.396 100.395 304.378 100.65 304.341 100.941C304.341 101.232 304.323 101.505 304.287 101.759H279.678V97.9943H301.558L299.43 99.3043C299.467 97.4493 299.085 95.7943 298.285 94.3393C297.484 92.8833 296.375 91.7563 294.956 90.9563C293.574 90.1193 291.955 89.7013 290.1 89.7013C288.281 89.7013 286.662 90.1193 285.244 90.9563C283.825 91.7563 282.716 92.9023 281.915 94.3933C281.115 95.8483 280.715 97.5213 280.715 99.4133V100.286C280.715 102.214 281.152 103.942 282.025 105.47C282.934 106.961 284.189 108.125 285.789 108.962C287.39 109.798 289.227 110.217 291.3 110.217C293.01 110.217 294.556 109.926 295.938 109.344C297.357 108.762 298.594 107.889 299.649 106.725L302.541 110.107C301.231 111.635 299.594 112.799 297.63 113.6C295.702 114.4 293.538 114.8 291.137 114.8Z" fill="white" fill-opacity="0.5"/>
<path d="M311.672 114.473V85.5543H316.692V93.4113L316.201 91.4474C317.002 89.4464 318.347 87.9183 320.239 86.8633C322.131 85.8083 324.459 85.2812 327.223 85.2812V90.3553C327.005 90.3193 326.787 90.3013 326.568 90.3013C326.387 90.3013 326.205 90.3013 326.023 90.3013C323.222 90.3013 321.003 91.1373 319.366 92.8113C317.729 94.4843 316.911 96.9033 316.911 100.068V114.473H311.672Z" fill="white" fill-opacity="0.5"/>
</svg>
