<svg width="100" height="100" viewBox="0 0 100 100" fill="none" xmlns="http://www.w3.org/2000/svg">
<g clip-path="url(#clip0_77_10)">
<g clip-path="url(#clip1_77_10)">
<path d="M52.5631 39.9719L53.083 40.3742C55.8449 42.5094 58.1733 45.1631 59.9413 48.1887C62.3989 52.3951 63.6946 57.1894 63.6946 62.0726V78.8863C63.6946 82.5647 62.1968 86.0807 59.5514 88.6103C54.5737 93.3711 46.8231 93.5183 41.6702 88.9519L41.5101 88.8103C38.5906 86.2223 36.9168 82.4895 36.9168 78.5671V61.8142C36.9168 61.4478 36.6228 61.1502 36.2598 61.1502H19.0626C15.4781 61.1502 12.0402 59.7135 9.50583 57.1551C4.3657 51.9655 4.21197 43.6014 9.15871 38.2238L9.30216 38.0678C11.9008 35.243 15.5478 33.6375 19.3669 33.6375H34.0511C40.7438 33.6375 47.2494 35.8639 52.5631 39.9719ZM52.5631 39.9719L50.1904 43.0982" stroke="white" stroke-width="10"/>
<path d="M58.7031 9.44802L58.8632 9.58962V9.59043C61.7827 12.1776 63.4565 15.9104 63.4565 19.8328V36.5856C63.4565 36.952 63.7513 37.2496 64.1143 37.2496H81.3115C84.896 37.2496 88.3331 38.6864 90.8675 41.2448C96.0084 46.4344 96.1614 54.7985 91.2154 60.1761L91.0712 60.3321C88.4726 63.1569 84.8263 64.7625 81.0064 64.7625H66.323C59.6303 64.7625 53.1239 62.5361 47.811 58.4281L47.2911 58.0256C44.5284 55.8904 42.2001 53.2368 40.4328 50.2112C37.9752 46.0048 36.6787 41.2104 36.6787 36.3272V19.5136C36.6787 15.8352 38.1773 12.3192 40.8219 9.78962C45.7996 5.02882 53.551 4.88082 58.7031 9.44802ZM58.7031 9.44802L56.0886 12.4536" stroke="#0CC0DF" stroke-width="10"/>
</g>
</g>
<defs>
<clipPath id="clip0_77_10">
<rect width="100" height="100" fill="white"/>
</clipPath>
<clipPath id="clip1_77_10">
<rect width="317" height="96" fill="white" transform="translate(0 2)"/>
</clipPath>
</defs>
</svg>
