<svg version="1.1" id="Layer_1" xmlns="http://www.w3.org/2000/svg" xmlns:xlink="http://www.w3.org/1999/xlink" x="0px"
									 y="0px" width="790" height="264" viewBox="0 0 791 265" enable-background="new 0 0 791 265" xml:space="preserve">
									 <path fill="transparent" opacity="1.000000" stroke="none" d="
								 M792.000000,102.999985 
									 C792.000000,157.217148 792.000000,211.434280 792.000000,266.000000 
									 C778.314392,266.000000 764.625854,266.000000 750.477051,265.637665 
									 C752.015503,262.090637 754.014099,258.905945 756.385376,255.127441 
									 C752.147156,255.127441 748.608459,255.127441 744.599121,255.087524 
									 C738.465149,255.011871 732.801880,254.976151 727.084595,254.505112 
									 C727.066895,251.732269 727.103088,249.394745 727.564209,247.039215 
									 C729.974854,246.994049 731.960510,246.966888 734.402954,246.968201 
									 C745.293030,247.033279 746.557373,246.137878 749.823120,236.099426 
									 C746.475952,236.099426 743.241760,236.099426 739.546875,236.055420 
									 C735.087219,236.002640 731.088379,235.993866 727.053406,235.520065 
									 C727.356934,227.383835 727.696594,219.712631 728.502441,212.028931 
									 C736.015137,211.963425 743.061584,211.910431 750.554932,211.914795 
									 C753.785278,211.972168 756.568848,211.972168 759.586670,211.972168 
									 C759.880554,210.615906 760.139160,209.422546 760.258667,208.871094 
									 C764.132141,207.995117 768.115845,208.089706 770.690247,206.231659 
									 C773.258423,204.378098 774.414368,200.567841 776.409180,197.250076 
									 C772.132507,197.250076 768.688721,197.250076 764.824951,197.173645 
									 C762.984131,197.044632 761.563293,196.992050 760.088989,196.504059 
									 C760.066345,193.731308 760.097046,191.393951 760.572510,189.037811 
									 C763.998474,188.991119 766.979675,188.963226 770.416382,188.963028 
									 C780.973633,189.028793 783.181641,187.490936 786.349304,178.101074 
									 C782.872192,178.101074 779.440613,178.101074 775.544678,178.056564 
									 C770.408813,177.998718 765.737305,177.985382 761.025269,177.545746 
									 C757.331360,176.779816 753.678101,176.440201 749.557373,176.046188 
									 C742.057800,175.979660 735.025757,175.967529 728.001953,175.516953 
									 C728.010193,173.487610 728.010193,171.896729 728.010193,171.202591 
									 C731.682556,167.839966 738.958740,174.146149 738.985596,165.385147 
									 C738.992065,163.263718 739.251648,159.644363 738.365967,159.290771 
									 C735.313354,158.072006 731.805542,157.993393 728.409180,157.470963 
									 C728.409180,122.728226 728.409180,87.936447 728.409180,53.002846 
									 C735.300903,53.002846 741.787048,53.069973 748.269470,52.945621 
									 C749.549500,52.921062 751.286255,52.542210 751.998840,51.665451 
									 C754.080444,49.104420 755.750671,46.209019 758.020874,42.782562 
									 C747.506531,42.782562 737.914124,42.782562 728.054626,42.782562 
									 C728.054626,39.628914 728.054626,36.828613 728.504150,34.018059 
									 C731.662170,33.963406 734.370667,33.919003 737.529114,33.928631 
									 C748.265503,34.052368 751.826904,31.589882 753.532166,23.122730 
									 C750.031494,23.122730 746.554626,23.122730 742.608765,23.084482 
									 C737.468994,23.011209 732.798279,22.976183 728.074829,22.478678 
									 C728.022156,16.104916 728.022156,10.193633 728.022156,4.089358 
									 C724.261169,4.089358 721.135559,4.089358 717.542603,4.045382 
									 C705.351074,4.036563 693.627014,4.071718 681.453369,4.056618 
									 C677.745667,4.166962 672.938416,3.026704 671.511780,4.725451 
									 C666.708435,10.445180 663.107666,17.174879 658.568237,24.265810 
									 C662.360657,24.265810 665.089905,24.265810 668.214966,24.265810 
									 C665.238647,29.882507 662.532532,34.777847 655.231201,33.077618 
									 C654.269409,32.853645 652.611206,33.468269 652.004578,34.255947 
									 C649.782898,37.140862 647.869263,40.263035 645.512146,43.785286 
									 C649.106323,43.957176 651.965576,44.093914 655.513306,44.263584 
									 C653.408691,47.300526 651.703430,49.761154 649.557373,52.123028 
									 C642.517883,50.825924 637.973145,52.903141 634.950256,59.334713 
									 C632.562073,64.415810 628.947144,68.925484 625.829590,73.657707 
									 C611.491699,95.421562 597.137207,117.174492 582.333374,138.938019 
									 C575.553528,138.999054 569.228760,139.053406 562.466370,139.058594 
									 C553.080383,138.969345 550.471191,140.945724 547.584167,150.163025 
									 C550.981506,149.975830 554.278992,149.794159 558.058594,149.728607 
									 C564.035156,149.902969 569.529724,149.961166 574.912781,150.352310 
									 C573.473206,152.681061 572.074219,154.633789 570.829712,156.680435 
									 C566.522766,163.763290 562.269653,170.878815 557.539490,177.988968 
									 C554.328613,178.050247 551.574219,178.104431 548.383301,178.102051 
									 C538.585327,177.896454 535.559204,180.112686 533.333801,188.752594 
									 C536.466187,188.757645 539.598633,188.757645 543.209045,188.830627 
									 C548.452148,188.941208 553.217224,188.978836 557.989807,189.483322 
									 C557.997253,197.199112 557.997253,204.448029 557.997253,211.890640 
									 C561.989929,211.890640 565.444031,211.890640 569.372192,211.922150 
									 C603.534180,211.970108 637.222107,211.986557 670.948486,212.469727 
									 C670.987000,220.523209 670.987000,228.109970 670.987000,235.535034 
									 C670.124329,235.783264 669.820190,235.946716 669.515625,235.947433 
									 C658.376953,235.973724 647.238342,235.987473 636.099670,235.997238 
									 C629.481384,236.003052 625.527466,239.504929 624.136658,247.066986 
									 C639.731018,247.066986 655.235107,247.066986 671.000000,247.066986 
									 C671.000000,253.742798 671.000000,259.871399 671.000000,266.000000 
									 C522.979126,266.000000 374.958221,266.000000 226.124420,265.752014 
									 C227.272171,262.216125 229.232803,258.928223 231.424011,255.253677 
									 C227.177338,255.253677 223.715485,255.253677 219.776001,255.175690 
									 C213.907730,255.045090 208.517105,254.992477 203.076416,254.504257 
									 C203.059479,251.730820 203.092575,249.392975 203.549683,247.037689 
									 C205.672104,246.971832 207.370514,246.923431 209.519714,246.930466 
									 C219.914093,247.050629 222.860733,245.016754 225.572723,236.171722 
									 C222.089905,236.171722 218.624115,236.171722 214.691254,236.120911 
									 C210.504120,236.040176 206.784073,236.010254 203.037064,235.514465 
									 C203.031006,227.375305 203.051895,219.702042 203.536865,212.027008 
									 C211.330734,211.989838 218.660538,211.954437 226.448700,211.954620 
									 C229.704971,211.990219 232.502884,211.990219 235.338242,211.990219 
									 C235.843506,210.534271 236.285049,209.261978 236.683029,208.115219 
									 C246.574265,207.807999 246.574265,207.807999 251.963470,197.123581 
									 C248.182648,197.123581 244.630463,197.123581 240.667572,197.085327 
									 C238.882919,197.011444 237.508957,196.975784 236.083282,196.504395 
									 C236.058731,193.730026 236.085876,191.391388 236.558502,189.035065 
									 C239.694473,188.969437 242.384979,188.921478 245.526001,188.928177 
									 C256.632751,189.054901 258.465454,187.793488 261.609375,178.171753 
									 C258.111176,178.171753 254.633987,178.171753 250.683853,178.120667 
									 C245.509811,178.026489 240.808731,177.983414 236.052505,177.515472 
									 C232.413116,176.803787 228.828873,176.516983 224.768860,176.134842 
									 C217.206116,176.016937 210.119141,175.994354 203.019379,175.530502 
									 C203.006592,173.496429 203.006592,171.903625 203.006592,169.803192 
									 C206.995743,169.803192 210.405304,169.803192 213.749634,169.803192 
									 C213.749634,165.674561 213.749634,162.069519 213.749634,157.932358 
									 C210.118286,157.932358 206.716110,157.932358 203.002716,157.932358 
									 C203.002716,156.421005 203.002716,155.450302 203.002701,154.479599 
									 C203.002304,122.980293 202.974686,91.480919 203.057266,59.981823 
									 C203.063354,57.656868 203.863235,55.333996 204.255936,53.215988 
									 C205.221146,53.097885 205.549240,53.023624 205.877548,53.022705 
									 C210.544037,53.009666 215.210541,53.003353 219.877045,53.001759 
									 C227.933167,52.999004 230.207214,51.177952 232.269363,42.788094 
									 C222.906998,42.788094 213.627548,42.788094 204.013733,42.788094 
									 C204.013733,39.642780 204.013733,36.841091 204.463654,34.025681 
									 C207.616425,33.975555 210.319275,33.939148 213.471481,33.944450 
									 C223.344620,34.036560 228.240555,30.452805 228.545883,23.253519 
									 C225.116089,23.253519 221.687149,23.253519 217.783691,23.175751 
									 C212.902618,23.046181 208.496078,22.994379 204.059326,22.478874 
									 C204.029144,16.131105 204.029144,10.247040 204.029144,4.153121 
									 C199.993881,4.153121 196.563370,4.153121 192.657776,4.108227 
									 C180.470856,4.047730 168.759033,4.032129 156.590897,4.006941 
									 C152.771896,4.610064 148.097107,4.051939 146.302094,6.063544 
									 C141.641693,11.286284 138.247620,17.639009 134.094818,23.924210 
									 C137.525238,23.924210 140.457199,23.924210 144.000015,23.924210 
									 C142.061813,27.237635 140.373322,30.124166 138.518127,32.952957 
									 C138.351425,32.895214 138.023834,33.026314 137.569107,33.008865 
									 C127.477356,32.974884 124.879654,34.842201 122.155952,44.062679 
									 C124.981956,44.062679 127.696617,44.062679 130.910080,44.062679 
									 C129.043365,47.013142 127.502594,49.448421 125.509262,51.932125 
									 C118.164505,50.788181 113.968643,53.412273 110.398849,59.727852 
									 C104.521835,70.125328 97.332947,79.779312 90.734322,89.771324 
									 C79.871941,106.219788 69.039299,122.687897 57.715500,139.102448 
									 C51.126144,139.073929 45.015408,139.090668 38.461151,139.057800 
									 C29.090355,138.967255 26.239445,141.065460 23.364750,149.837250 
									 C26.531841,149.837250 29.680044,149.837250 33.304710,149.885620 
									 C39.510288,149.960205 45.239399,149.986420 50.880703,150.347015 
									 C47.524174,155.453003 44.090107,160.121719 41.037350,165.027710 
									 C38.443024,169.196976 36.288441,173.639862 33.487511,177.975098 
									 C30.006136,178.018005 26.976538,178.047485 23.505035,178.041565 
									 C14.056813,177.976028 11.506641,179.902710 8.574162,189.159790 
									 C11.977312,188.977814 15.282144,188.801102 19.066921,188.737183 
									 C24.327021,188.918350 29.107170,188.986710 33.930664,189.518524 
									 C33.974007,197.208755 33.974007,204.435516 33.974007,211.814178 
									 C37.927261,211.814178 41.361008,211.814178 45.273483,211.868973 
									 C79.464920,211.949615 113.177635,211.975464 146.938187,212.459381 
									 C146.567963,220.582733 146.149887,228.248016 145.727036,236.001038 
									 C133.102951,236.001038 120.965767,235.957382 108.829742,236.056381 
									 C107.316475,236.068726 105.173584,236.354019 104.420891,237.346176 
									 C102.323448,240.110947 100.803787,243.314041 98.655701,247.037994 
									 C114.757896,247.037994 130.249802,247.037994 146.000000,247.037994 
									 C146.000000,253.738739 146.000000,259.869385 146.000000,266.000000 
									 C97.742279,266.000000 49.484562,266.000000 1.000000,266.000000 
									 C1.000000,221.312698 1.000000,176.625000 1.468657,131.468506 
									 C16.551060,130.999741 31.164804,130.999802 45.778549,130.999817 
									 C55.041027,130.999832 56.933834,129.605728 60.448738,120.001846 
									 C43.456329,120.001846 26.557997,119.910881 9.664325,120.149750 
									 C8.065030,120.172371 6.441411,122.197906 4.927191,123.415550 
									 C3.548713,124.524048 2.303789,125.798622 0.999998,127.000000 
									 C1.000000,85.036774 1.000000,43.073544 1.000000,1.000000 
									 C125.354210,1.000000 249.708450,1.000000 374.869873,1.308530 
									 C375.189728,2.049779 374.743958,2.798035 374.208923,2.868488 
									 C364.127655,4.196043 354.511566,7.861662 347.156128,14.288057 
									 C337.799652,22.462788 327.650879,23.995321 316.258179,23.007292 
									 C315.266052,22.921249 314.225861,22.840523 313.270355,23.046535 
									 C312.444519,23.224585 311.436859,23.618979 310.977386,24.255447 
									 C308.844971,27.209259 306.875427,30.280630 304.278351,34.160255 
									 C311.816711,34.160255 318.326141,34.160255 325.529480,34.160255 
									 C314.876770,48.532948 309.837067,64.035316 308.410980,80.960419 
									 C304.786255,80.986778 301.621033,80.998840 298.455780,81.000534 
									 C290.332214,81.004883 287.315979,83.375328 284.927460,92.043266 
									 C293.017731,92.043266 300.972870,92.043266 308.956940,92.508148 
									 C308.985840,101.902451 308.985840,110.831871 308.985840,119.614571 
									 C308.042572,119.824921 307.729004,119.955498 307.415192,119.956055 
									 C295.916565,119.976547 284.417908,119.987289 272.919250,119.994225 
									 C265.465973,119.998718 261.570160,123.255730 259.800018,131.225372 
									 C276.149353,131.225372 292.431519,131.225372 308.862946,131.225372 
									 C308.862946,134.000793 308.862946,136.470673 308.411530,138.959747 
									 C304.313873,139.001984 300.667664,139.025009 296.571594,139.024933 
									 C287.638977,138.984070 284.641296,141.306061 282.300110,149.750427 
									 C285.451904,149.750427 288.589386,149.750427 292.206299,149.824860 
									 C298.092377,149.949951 303.498993,150.000610 308.938477,150.515564 
									 C308.948639,159.970352 308.925964,168.960831 308.442383,177.968414 
									 C302.953949,178.026367 297.926453,178.067215 292.455627,178.059021 
									 C283.085907,177.967865 280.256287,180.050278 277.361969,188.836609 
									 C280.529816,188.836609 283.678558,188.836609 287.304504,188.885376 
									 C294.827332,188.970612 301.873016,189.007095 308.964050,189.449493 
									 C309.489807,192.224258 309.892090,194.612122 310.463287,196.958878 
									 C313.990509,211.450760 320.162872,224.591660 330.689819,235.401718 
									 C326.706390,236.000671 322.424530,235.547440 319.637726,237.374542 
									 C316.895081,239.172729 315.668610,243.283432 313.395203,247.004028 
									 C322.825287,247.004028 331.284210,246.935638 339.740417,247.056503 
									 C341.636475,247.083572 343.919220,247.219055 345.352203,248.243866 
									 C358.438110,257.602417 373.331543,261.491669 389.019348,262.911560 
									 C391.955994,263.177429 394.992462,262.340240 398.396973,262.056030 
									 C402.566071,262.360138 406.321075,262.620270 410.527252,262.934753 
									 C423.286377,262.703400 435.232910,261.100128 446.775269,256.179657 
									 C469.139740,246.645828 484.724976,230.905853 493.531494,208.034637 
									 C496.679077,207.968903 499.379242,207.921478 502.529236,207.928314 
									 C513.370117,208.053223 515.895813,206.305527 518.540466,197.123260 
									 C515.031616,197.123260 511.554749,197.123260 507.616241,197.085342 
									 C503.769104,197.017014 500.383575,196.986603 497.005035,196.547394 
									 C497.378693,193.777649 497.745331,191.416718 498.534241,189.036926 
									 C500.647552,188.980225 502.338623,188.942383 504.484802,188.945908 
									 C514.886292,189.038925 518.061890,186.839569 520.523193,178.131500 
									 C517.023865,178.131500 513.546082,178.131500 509.607666,178.093155 
									 C505.769684,178.023560 502.392303,177.992325 499.014099,177.496368 
									 C499.013306,155.123108 499.013306,133.214554 499.013306,111.002670 
									 C504.280273,111.002670 508.917969,111.002930 513.555664,111.002609 
									 C519.920776,111.002167 523.772827,107.671776 525.078247,100.708389 
									 C516.421021,100.708389 507.836304,100.708389 498.915833,100.708389 
									 C499.439178,84.381584 499.235870,68.498611 492.489838,52.574245 
									 C501.957733,55.223049 505.853790,50.281288 508.606415,42.996658 
									 C506.085968,42.996658 503.904938,42.806931 501.767090,43.030319 
									 C493.595520,43.884193 486.013550,43.540981 482.169342,34.509872 
									 C482.104645,34.357880 482.075745,34.190624 482.494232,34.019127 
									 C487.362762,33.949585 491.767181,33.891407 496.614075,33.891644 
									 C507.183746,34.118877 510.926392,31.522600 512.512634,23.124250 
									 C509.020813,23.124250 505.550568,23.124250 501.608032,23.085808 
									 C491.492279,23.010738 481.848785,22.974112 472.026550,22.636885 
									 C460.503754,13.039781 448.202820,5.623274 433.570709,2.720173 
									 C433.278198,2.662140 433.185760,1.595887 433.000000,1.000002 
									 C552.552551,1.000000 672.105042,1.000000 792.000000,1.000000 
									 C792.000000,34.020103 792.000000,67.041397 791.531372,100.536888 
									 C775.448730,101.007225 759.834717,101.002762 744.220764,100.999779 
									 C737.110107,100.998413 734.535156,103.081909 732.239502,110.999748 
									 C748.752258,110.999748 765.151489,110.897842 781.547241,111.090561 
									 C784.619629,111.126671 786.268860,109.934418 787.832214,107.627029 
									 C788.985474,105.924812 790.594177,104.531128 792.000000,102.999985 
								 M578.972534,130.030487 
									 C581.038574,126.871178 583.104553,123.711876 585.530579,120.002083 
									 C567.626221,120.002083 550.660767,119.982117 533.695679,120.056114 
									 C532.766418,120.060165 531.504333,120.597069 530.972107,121.313225 
									 C528.806702,124.227211 526.865356,127.307793 524.532227,130.788315 
									 C543.094849,130.788315 560.848938,130.788315 578.972534,130.030487 
								 M79.500290,33.999062 
									 C88.494614,33.999062 97.488937,34.000027 106.483261,33.998718 
									 C112.657249,33.997818 116.773087,30.103294 117.774429,23.001503 
									 C100.934273,23.001503 84.142776,22.960169 67.352516,23.085369 
									 C66.102104,23.094692 64.433678,23.989517 63.698730,25.006737 
									 C61.842510,27.575880 60.408154,30.449823 58.340134,33.999062 
									 C65.666061,33.999062 72.083336,33.999062 79.500290,33.999062 
								 M608.500610,22.999659 
									 C603.183167,22.999733 597.864746,22.944313 592.549133,23.043016 
									 C591.374939,23.064821 589.713135,23.252008 589.129944,24.015459 
									 C586.843994,27.008442 584.899780,30.262476 582.448364,33.999062 
									 C597.003784,33.999062 610.649353,33.417797 624.214966,34.207718 
									 C632.952515,34.716507 639.358521,32.941841 642.778809,24.412186 
									 C642.883545,24.150896 642.741211,23.790516 642.672791,22.999659 
									 C631.635864,22.999659 620.568054,22.999659 608.500610,22.999659 
								 M263.430054,107.033455 
									 C264.507172,105.164658 265.584290,103.295868 266.907776,100.999603 
									 C250.810165,100.999603 235.498459,100.999557 220.186768,100.999619 
									 C212.722595,100.999649 210.089310,103.084373 207.706161,110.998100 
									 C224.559067,110.998100 241.366928,111.089256 258.170074,110.850502 
									 C259.768036,110.827797 261.336670,108.740524 263.430054,107.033455 
								 z" />
									 <path fill="#1A3866" opacity="1.000000" stroke="none" d="
								 M297.021423,139.048035 
									 C300.667664,139.025009 304.313873,139.001984 308.684265,139.294708 
									 C313.330658,139.610458 317.252838,139.610458 321.848694,139.610458 
									 C321.848694,126.806015 321.848724,114.348160 321.848694,101.890305 
									 C321.848694,90.090218 321.848389,90.088142 309.843445,91.659805 
									 C309.527008,91.701225 309.232666,91.911652 308.928040,92.043274 
									 C300.972870,92.043266 293.017731,92.043266 284.927460,92.043266 
									 C287.315979,83.375328 290.332214,81.004883 298.455780,81.000534 
									 C301.621033,80.998840 304.786255,80.986778 308.691162,81.287880 
									 C313.504242,81.596313 317.577698,81.596313 321.754395,81.596313 
									 C322.615051,65.669212 327.156219,51.436398 335.533905,38.389771 
									 C337.716858,34.990257 340.148529,32.690254 344.374237,33.591362 
									 C352.283234,35.277901 355.859375,29.890017 360.399475,23.875034 
									 C356.067047,23.875034 352.586945,23.875034 348.007141,23.875034 
									 C357.912964,14.476056 368.342529,8.527980 380.099823,4.948699 
									 C385.317078,3.360409 390.695007,2.300016 396.000000,1.000001 
									 C402.354401,1.000000 408.708801,1.000000 415.753387,1.310769 
									 C432.562378,4.230599 447.166992,10.327069 459.471283,21.169460 
									 C463.618500,24.823961 467.667969,24.487720 472.205292,22.937485 
									 C481.848785,22.974112 491.492279,23.010738 501.546814,23.429211 
									 C500.029114,27.151781 498.100372,30.492502 496.171631,33.833229 
									 C491.767181,33.891407 487.362762,33.949585 482.055389,33.927002 
									 C478.386414,33.846237 475.620361,33.846237 472.139771,33.846237 
									 C473.990387,37.095474 475.487671,39.724415 477.043243,42.455658 
									 C475.025787,43.036781 473.535614,43.466015 470.638153,44.300613 
									 C473.661682,47.649460 475.690704,51.914024 478.504669,52.517311 
									 C482.260895,53.322609 483.372437,54.993214 484.368378,57.957615 
									 C488.410919,69.989876 489.039886,82.409218 488.765656,94.946518 
									 C488.698486,98.017609 489.593292,101.612206 484.450256,101.432610 
									 C483.928680,101.414398 482.980011,103.062225 482.869080,104.011627 
									 C482.626129,106.091492 482.793854,108.219330 482.793854,110.346375 
									 C485.014465,110.805359 486.580048,111.128944 488.641327,111.554993 
									 C488.641327,113.669571 488.654358,115.637428 488.639313,117.605072 
									 C488.509399,134.585800 488.344330,151.566299 488.252014,168.547226 
									 C488.193542,179.305176 488.241211,179.305435 499.014923,177.961075 
									 C502.392303,177.992325 505.769684,178.023560 509.494507,178.411789 
									 C507.904541,182.147354 505.967133,185.525955 504.029694,188.904541 
									 C502.338623,188.942383 500.647552,188.980225 498.216187,188.773392 
									 C487.715881,187.230087 486.813080,187.989410 486.962830,198.246414 
									 C490.355408,197.810242 493.676727,197.383224 496.998047,196.956207 
									 C500.383575,196.986603 503.769104,197.017014 507.551300,197.424561 
									 C505.991791,201.159134 504.035614,204.516586 502.079437,207.874039 
									 C499.379242,207.921478 496.679077,207.968903 493.189453,207.836365 
									 C483.973602,206.837845 484.087189,206.893967 480.469055,214.216843 
									 C468.490265,238.461166 449.398193,253.895523 423.034424,260.178253 
									 C418.743988,261.200714 414.396973,261.985687 410.076111,262.880432 
									 C406.321075,262.620270 402.566071,262.360138 397.985413,262.009338 
									 C381.350830,260.563110 361.440002,252.185577 357.485535,245.963501 
									 C364.493439,245.963501 371.183960,245.963501 378.271881,245.963501 
									 C372.730499,239.083389 366.778900,234.797913 357.936218,236.346039 
									 C354.865173,236.883728 351.564514,236.791046 348.474182,236.309494 
									 C346.230347,235.959824 343.315887,235.085892 342.158844,233.427933 
									 C337.230652,226.366425 332.114502,219.269287 328.476288,211.523224 
									 C325.124786,204.387573 323.574402,196.405960 320.959045,187.915268 
									 C317.352112,188.253281 313.135406,188.648438 308.918671,189.043579 
									 C301.873016,189.007095 294.827332,188.970612 287.374023,188.545532 
									 C288.943878,184.807312 290.921387,181.457687 292.898926,178.108078 
									 C297.926453,178.067215 302.953949,178.026367 308.794281,178.179932 
									 C312.418884,178.452087 315.233276,178.478851 318.041656,178.622833 
									 C320.523407,178.750061 321.653625,177.796906 321.637451,175.181808 
									 C321.591461,167.724075 321.813416,160.262863 321.641083,152.809692 
									 C321.614532,151.662735 320.115021,149.637909 319.206665,149.585678 
									 C315.793182,149.389465 312.342438,149.841873 308.905640,150.051270 
									 C303.498993,150.000610 298.092377,149.949951 292.271698,149.480927 
									 C293.578918,145.724380 295.300171,142.386200 297.021423,139.048035 
								 M405.179779,225.299637 
									 C405.519318,225.227188 405.858826,225.154755 407.057861,225.165833 
									 C431.928467,224.590134 451.545898,204.046188 451.705566,178.198456 
									 C451.872040,151.252533 451.871429,124.305557 451.926086,97.359009 
									 C451.929382,95.737831 451.775726,94.116341 451.683136,92.254303 
									 C448.339569,92.019348 445.289246,91.805000 442.229858,91.590012 
									 C442.229858,88.198563 442.229858,85.267860 442.229858,82.086899 
									 C445.503998,81.821396 448.517303,81.577042 451.483490,81.336502 
									 C450.491486,57.701462 429.827240,37.849514 406.142548,37.903984 
									 C380.671692,37.860062 360.698029,55.255009 358.967957,80.552620 
									 C357.743652,98.455658 358.484009,116.489594 358.133545,134.460922 
									 C358.095978,136.387482 356.281311,138.221054 355.907593,140.213409 
									 C355.383667,143.006866 354.237091,147.559586 355.469574,148.456421 
									 C359.243835,151.202896 358.122162,154.577789 358.178070,157.818008 
									 C358.301575,164.974762 358.024017,172.138916 358.171234,179.294678 
									 C358.704315,205.205750 380.274902,226.224213 404.989075,224.995285 
									 C404.989075,224.995285 404.931305,225.029648 405.179779,225.299637 
								 M460.477966,163.570084 
									 C460.616241,165.302429 460.754517,167.034775 460.884125,168.658493 
									 C465.041718,168.658493 468.584503,168.658493 472.408142,168.658493 
									 C472.506439,166.628586 472.594116,165.000366 472.662201,163.371353 
									 C472.766510,160.875031 472.548706,158.178406 469.154785,159.041092 
									 C466.154724,159.803680 460.865631,155.724976 460.477966,163.570084 
								 z" />
									 <path fill="#1A3866" opacity="1.000000" stroke="none" d="
								 M203.032150,175.971771 
									 C210.119141,175.994354 217.206116,176.016937 224.896317,176.461456 
									 C228.719528,180.407654 232.467163,178.636154 236.107635,177.940338 
									 C240.808731,177.983414 245.509811,178.026489 250.610687,178.458008 
									 C249.032150,182.188797 247.053833,185.531174 245.075500,188.873535 
									 C242.384979,188.921478 239.694473,188.969437 236.239594,188.767151 
									 C233.191696,188.396332 230.774948,187.780731 228.675888,188.345642 
									 C227.467560,188.670807 226.023163,190.910172 226.030365,192.280807 
									 C226.040192,194.151840 227.031479,197.363998 228.134888,197.609894 
									 C230.628036,198.165466 233.447998,197.254532 236.135010,196.940140 
									 C237.508957,196.975784 238.882919,197.011444 240.567459,197.412781 
									 C237.892502,202.680191 235.888519,208.783142 228.072220,207.629486 
									 C227.599609,207.559723 226.694305,210.421371 225.990326,211.919022 
									 C218.660538,211.954437 211.330734,211.989838 203.076355,211.973282 
									 C200.986267,211.902267 199.802612,212.008102 198.658417,211.842087 
									 C194.143509,211.187012 192.273499,212.901428 192.796402,217.583313 
									 C193.145447,220.708344 192.889282,223.905090 192.846405,227.068985 
									 C192.709045,237.202835 192.698700,237.202698 203.064011,235.980347 
									 C206.784073,236.010254 210.504120,236.040176 214.589569,236.448090 
									 C212.992935,240.175735 211.030930,243.525375 209.068924,246.875031 
									 C207.370514,246.923431 205.672104,246.971832 203.249603,246.740417 
									 C200.223373,246.333710 197.791046,245.711716 195.669006,246.269745 
									 C194.439804,246.592987 192.940506,248.816101 192.941650,250.183060 
									 C192.943222,252.080414 193.928894,255.342041 195.045044,255.596176 
									 C197.558716,256.168518 200.411621,255.251053 203.126465,254.939880 
									 C208.517105,254.992477 213.907730,255.045090 219.717621,255.520309 
									 C218.091232,259.295288 216.045609,262.647644 214.000000,266.000000 
									 C195.312439,266.000000 176.624878,266.000000 157.518829,265.533630 
									 C157.100342,252.545074 157.100342,240.022934 157.100342,227.344589 
									 C160.845871,227.118698 163.899750,226.934509 166.957397,226.750107 
									 C166.957397,223.328644 166.957397,220.415359 166.957397,217.207504 
									 C163.751343,217.027817 160.836945,216.864456 157.756378,216.691788 
									 C157.333633,215.029083 156.947708,213.511215 156.563812,212.001312 
									 C153.135132,212.001312 150.012741,212.001312 146.890350,212.001312 
									 C113.177635,211.975464 79.464920,211.949615 45.258247,211.412399 
									 C44.764282,203.469025 44.764282,196.037003 44.764282,187.765503 
									 C40.594894,188.259827 37.241108,188.657440 33.887321,189.055054 
									 C29.107170,188.986710 24.327021,188.918350 19.078495,188.382462 
									 C20.389061,184.635605 22.167999,181.356277 23.946939,178.076950 
									 C26.976538,178.047485 30.006136,178.018005 33.858360,178.131653 
									 C40.184315,179.448624 44.860226,179.128632 46.994656,172.615723 
									 C47.690880,170.491287 49.425018,168.704239 50.699043,166.772491 
									 C54.300659,161.311523 57.909821,155.855545 62.303276,149.206070 
									 C57.676598,149.535309 54.322552,149.773972 50.968510,150.012634 
									 C45.239399,149.986420 39.510288,149.960205 33.374100,149.545746 
									 C34.946236,145.807465 36.925449,142.457428 38.904663,139.107407 
									 C45.015408,139.090668 51.126144,139.073929 58.002800,139.371658 
									 C65.093185,141.052216 70.095268,139.782196 72.992920,133.252396 
									 C73.594162,131.897491 75.793968,130.177811 77.016739,130.348434 
									 C84.544678,131.398880 85.631737,125.464752 88.611679,120.831917 
									 C86.141800,120.494476 84.266075,120.238213 81.622368,119.877029 
									 C96.662582,97.175858 111.319672,75.052956 126.446777,52.937397 
									 C131.399612,52.947578 135.882431,52.953392 140.365265,52.952553 
									 C146.948227,52.951321 149.990784,50.285072 151.397736,42.762535 
									 C145.297287,42.762535 139.307587,42.762535 133.165771,42.762535 
									 C134.980469,39.125629 136.502151,36.075970 138.023834,33.026314 
									 C138.023834,33.026314 138.351425,32.895214 138.971603,33.102547 
									 C149.489700,33.739021 150.818787,32.893734 153.701309,24.180460 
									 C151.153397,23.989788 148.655029,23.802826 145.405731,23.559666 
									 C147.335754,20.509094 148.875061,18.209711 150.277237,15.829537 
									 C152.580688,11.919433 154.795197,7.956938 157.047195,4.016528 
									 C168.759033,4.032129 180.470856,4.047730 192.655396,4.566463 
									 C193.132034,10.158466 192.990341,15.254663 193.245651,20.330889 
									 C193.306976,21.550200 194.638565,23.669901 195.468765,23.711212 
									 C198.322540,23.853218 201.213028,23.257286 204.089523,22.942577 
									 C208.496078,22.994379 212.902618,23.046181 217.768890,23.532227 
									 C216.493118,27.278564 214.757614,30.590654 213.022110,33.902748 
									 C210.319275,33.939148 207.616425,33.975555 204.007355,33.936596 
									 C202.105820,33.789658 201.111267,33.670197 200.115082,33.654224 
									 C193.213593,33.543583 193.178177,33.550343 193.148788,40.280975 
									 C193.095657,52.444942 192.936417,64.611801 193.150574,76.771660 
									 C193.220764,80.756805 191.941971,82.337524 188.041718,81.766296 
									 C184.093994,81.188118 182.490707,82.887482 183.048050,86.815567 
									 C183.271576,88.390892 183.296387,89.994423 183.416611,91.653854 
									 C186.868149,91.884308 189.771912,92.078194 193.148621,92.303658 
									 C193.148621,120.415169 193.148621,147.995483 193.148621,175.971771 
									 C196.786743,175.971771 199.909439,175.971771 203.032150,175.971771 
								 M157.498138,96.187347 
									 C157.498138,91.953865 157.498138,87.720383 157.498138,83.486900 
									 C155.474594,84.550797 154.476013,85.822594 153.567703,87.155884 
									 C144.471451,100.508026 134.570511,113.401901 126.577888,127.385986 
									 C120.754936,137.573975 113.802216,141.622726 102.282768,140.119766 
									 C94.588280,139.115860 93.381500,140.752182 90.053276,149.774399 
									 C96.830513,149.774399 103.283104,149.774399 110.947723,149.774399 
									 C104.762627,159.063812 99.395874,167.124161 93.510841,175.962906 
									 C97.741737,175.962906 100.864540,175.962906 104.925941,175.988235 
									 C118.951675,175.986633 132.977417,175.985016 147.919357,176.046875 
									 C150.865646,176.046875 153.811951,176.046875 156.840042,176.046875 
									 C157.195755,173.422791 157.474472,171.366776 157.757553,169.278564 
									 C161.250259,169.098541 164.316864,168.940491 167.378204,168.782715 
									 C167.378204,165.256348 167.378204,162.342270 167.378204,159.178436 
									 C163.981491,159.001724 160.906433,158.841751 157.277817,158.652969 
									 C157.277817,156.347107 157.278717,154.388535 157.277679,152.429962 
									 C157.267899,133.983414 157.257797,115.536873 157.498138,96.187347 
								 z" />
									 <path fill="#1A3866" opacity="1.000000" stroke="none" d="
								 M733.946167,246.939758 
									 C731.960510,246.966888 729.974854,246.994049 727.277710,246.727371 
									 C716.662109,245.208511 715.571655,246.321228 717.928772,256.235901 
									 C720.922302,255.814835 724.030396,255.377640 727.138550,254.940445 
									 C732.801880,254.976151 738.465149,255.011871 744.483765,255.407410 
									 C742.892700,259.178162 740.946350,262.589081 739.000000,266.000000 
									 C722.645752,266.000000 706.291565,266.000000 689.133423,265.794312 
									 C686.142517,265.471710 683.955505,265.354828 681.694580,264.811005 
									 C681.620667,252.035767 681.620667,239.687485 681.620667,227.295181 
									 C685.631042,227.099716 688.538452,226.957993 691.556152,226.810913 
									 C691.556152,223.373840 691.556152,220.462555 691.556152,217.232056 
									 C688.243225,217.017960 685.188171,216.820526 681.921570,216.609421 
									 C682.307312,212.485641 680.406494,211.223984 676.862549,211.687988 
									 C674.898254,211.945175 672.895447,211.907669 670.909973,212.002991 
									 C637.222107,211.986557 603.534180,211.970108 569.410889,211.462372 
									 C568.975403,203.462769 568.975403,195.954468 568.975403,187.759216 
									 C564.737183,188.243927 561.359802,188.630203 557.982361,189.016449 
									 C553.217224,188.978836 548.452148,188.941208 543.274902,188.488068 
									 C544.848511,184.767914 546.834167,181.463272 548.819885,178.158630 
									 C551.574219,178.104431 554.328613,178.050247 557.928528,178.093613 
									 C560.911072,178.326706 563.059387,178.652924 565.180847,178.527023 
									 C566.476074,178.450165 568.292786,178.059540 568.907288,177.153397 
									 C571.955383,172.658676 574.641663,167.920593 577.532349,163.316544 
									 C580.283264,158.935150 583.129028,154.613327 586.663452,149.132919 
									 C581.843323,149.500015 578.433777,149.759689 575.024231,150.019363 
									 C569.529724,149.961166 564.035156,149.902969 558.091919,149.377899 
									 C559.396851,145.643265 561.150452,142.375519 562.904053,139.107758 
									 C569.228760,139.053406 575.553528,138.999054 582.599731,139.272141 
									 C589.708557,141.151199 594.593018,139.742783 597.487183,133.188232 
									 C598.106079,131.786575 600.393433,130.492599 602.050659,130.291794 
									 C607.936829,129.578629 610.708801,127.255257 612.293884,120.770149 
									 C610.551453,120.484642 608.813171,120.199806 606.372009,119.799789 
									 C607.695251,117.682205 608.693298,116.016571 609.756714,114.393845 
									 C623.167175,93.930153 636.587097,73.472633 650.471497,52.975746 
									 C655.104797,52.939941 659.271240,52.943352 663.437622,52.943619 
									 C671.708679,52.944145 673.029053,51.969337 676.231567,43.146141 
									 C670.007141,43.146141 663.945618,43.146141 657.707520,43.146141 
									 C660.641235,35.621864 662.508118,33.708252 666.744019,33.588959 
									 C673.805115,33.390095 675.924500,31.658571 678.229004,24.122421 
									 C675.637695,23.968178 673.073669,23.815556 670.054932,23.635874 
									 C674.208984,16.788769 678.055908,10.447820 681.902893,4.106872 
									 C693.627014,4.071718 705.351074,4.036563 717.487549,4.504227 
									 C717.864380,10.096530 717.683899,15.192125 717.898132,20.271084 
									 C717.949890,21.498367 719.243896,23.636566 720.073914,23.689949 
									 C722.731384,23.860870 725.439148,23.250174 728.127502,22.941158 
									 C732.798279,22.976183 737.468994,23.011209 742.543457,23.423639 
									 C740.991211,27.158890 739.035217,30.516733 737.079224,33.874588 
									 C734.370667,33.919003 731.662170,33.963406 728.122559,33.877617 
									 C726.471130,33.625553 725.654053,33.429443 724.830017,33.393444 
									 C717.764099,33.084797 717.807190,33.093811 717.747742,40.348446 
									 C717.651001,52.161861 717.319580,63.976612 717.447083,75.786911 
									 C717.494080,80.132309 716.575745,82.545357 711.709045,81.775352 
									 C708.003113,81.188995 707.137024,83.232262 707.322754,86.474579 
									 C707.486023,89.325729 706.933289,92.584961 711.459595,91.910172 
									 C716.469666,91.163261 717.513489,93.452065 717.454651,98.091866 
									 C717.167480,120.726440 717.202393,143.365189 717.144287,166.002533 
									 C717.117065,176.596985 717.138550,176.597046 727.993652,175.955399 
									 C735.025757,175.967529 742.057800,175.979660 749.562744,176.431168 
									 C753.387146,180.494415 757.291504,178.582214 761.065857,177.972046 
									 C765.737305,177.985382 770.408813,177.998718 775.373535,178.341705 
									 C773.764893,182.092697 771.862915,185.514038 769.960938,188.935364 
									 C766.979675,188.963226 763.998474,188.991119 760.268799,188.750092 
									 C757.218018,188.373642 754.814819,187.834457 752.655334,188.338760 
									 C751.558716,188.594849 750.187500,190.743958 750.210388,192.014420 
									 C750.245728,193.977127 751.042480,197.343750 752.098389,197.586884 
									 C754.597534,198.162369 757.439209,197.250198 760.142395,196.939484 
									 C761.563293,196.992050 762.984131,197.044632 764.747925,197.512711 
									 C762.153015,202.767746 760.273621,208.904999 752.447388,207.593338 
									 C751.920654,207.505051 750.899353,210.367416 750.108093,211.857437 
									 C743.061584,211.910431 736.015137,211.963425 728.041992,211.970856 
									 C717.060303,211.705826 717.060303,211.705826 717.060242,221.601608 
									 C717.060242,223.580566 717.060181,225.559525 717.060242,227.538483 
									 C717.060730,237.190659 717.060730,237.190659 727.089539,235.985107 
									 C731.088379,235.993866 735.087219,236.002640 739.375854,236.338867 
									 C737.759155,240.090820 735.852661,243.515289 733.946167,246.939758 
								 M681.972656,96.021561 
									 C681.972656,91.685081 681.972656,87.348595 681.972656,83.012115 
									 C670.904907,97.625938 660.144531,111.922028 651.193237,127.272972 
									 C645.301697,137.376740 638.397034,141.567490 626.867310,140.118423 
									 C619.169617,139.150970 617.346497,141.230225 614.527344,149.742569 
									 C621.266479,149.742569 627.791443,149.742569 635.537781,149.742569 
									 C629.339355,158.945328 623.843506,167.104935 617.880981,175.957397 
									 C622.346863,175.957397 625.665283,175.957397 629.922668,175.986008 
									 C643.620911,175.984299 657.319092,175.982590 671.933594,176.036758 
									 C675.157654,176.036758 678.381775,176.036758 681.478638,176.036758 
									 C681.818298,173.208786 682.047607,171.299744 682.346802,168.808640 
									 C685.716919,168.808640 688.760742,168.808640 691.688354,168.808640 
									 C691.688354,165.238098 691.688354,162.313217 691.688354,159.160629 
									 C688.337097,158.983902 685.277527,158.822540 681.866699,158.642670 
									 C681.866699,137.745407 681.866699,117.341637 681.972656,96.021561 
								 z" />
									 <path fill="#53C1E7" opacity="1.000000" stroke="none" d="
								 M395.531464,1.000001 
									 C390.695007,2.300016 385.317078,3.360409 380.099823,4.948699 
									 C368.342529,8.527980 357.912964,14.476056 348.007141,23.875034 
									 C352.586945,23.875034 356.067047,23.875034 360.399475,23.875034 
									 C355.859375,29.890017 352.283234,35.277901 344.374237,33.591362 
									 C340.148529,32.690254 337.716858,34.990257 335.533905,38.389771 
									 C327.156219,51.436398 322.615051,65.669212 321.754395,81.596313 
									 C317.577698,81.596313 313.504242,81.596313 309.150635,81.268860 
									 C309.837067,64.035316 314.876770,48.532948 325.529480,34.160255 
									 C318.326141,34.160255 311.816711,34.160255 304.278351,34.160255 
									 C306.875427,30.280630 308.844971,27.209259 310.977386,24.255447 
									 C311.436859,23.618979 312.444519,23.224585 313.270355,23.046535 
									 C314.225861,22.840523 315.266052,22.921249 316.258179,23.007292 
									 C327.650879,23.995321 337.799652,22.462788 347.156128,14.288057 
									 C354.511566,7.861662 364.127655,4.196043 374.208923,2.868488 
									 C374.743958,2.798035 375.189728,2.049779 375.338501,1.308530 
									 C381.687653,1.000000 388.375275,1.000000 395.531464,1.000001 
								 z" />
									 <path fill="#53C2E8" opacity="1.000000" stroke="none" d="
								 M670.948486,212.469727 
									 C672.895447,211.907669 674.898254,211.945175 676.862549,211.687988 
									 C680.406494,211.223984 682.307312,212.485641 681.921570,216.609421 
									 C685.188171,216.820526 688.243225,217.017960 691.556152,217.232056 
									 C691.556152,220.462555 691.556152,223.373840 691.556152,226.810913 
									 C688.538452,226.957993 685.631042,227.099716 681.620667,227.295181 
									 C681.620667,239.687485 681.620667,252.035767 681.694092,265.019043 
									 C681.767578,265.654083 682.000000,266.000000 682.000000,266.000000 
									 C678.638733,266.000000 675.277405,266.000000 671.458069,266.000000 
									 C671.000000,259.871399 671.000000,253.742798 671.000000,247.066986 
									 C655.235107,247.066986 639.731018,247.066986 624.136658,247.066986 
									 C625.527466,239.504929 629.481384,236.003052 636.099670,235.997238 
									 C647.238342,235.987473 658.376953,235.973724 669.515625,235.947433 
									 C669.820190,235.946716 670.124329,235.783264 670.987000,235.535034 
									 C670.987000,228.109970 670.987000,220.523209 670.948486,212.469727 
								 z" />
									 <path fill="#54C3E9" opacity="1.000000" stroke="none" d="
								 M146.938187,212.459381 
									 C150.012741,212.001312 153.135132,212.001312 156.563812,212.001312 
									 C156.947708,213.511215 157.333633,215.029083 157.756378,216.691788 
									 C160.836945,216.864456 163.751343,217.027817 166.957397,217.207504 
									 C166.957397,220.415359 166.957397,223.328644 166.957397,226.750107 
									 C163.899750,226.934509 160.845871,227.118698 157.100342,227.344589 
									 C157.100342,240.022934 157.100342,252.545074 157.050171,265.533630 
									 C153.638718,266.000000 150.277420,266.000000 146.458069,266.000000 
									 C146.000000,259.869385 146.000000,253.738739 146.000000,247.037994 
									 C130.249802,247.037994 114.757896,247.037994 98.655701,247.037994 
									 C100.803787,243.314041 102.323448,240.110947 104.420891,237.346176 
									 C105.173584,236.354019 107.316475,236.068726 108.829742,236.056381 
									 C120.965767,235.957382 133.102951,236.001038 145.727036,236.001038 
									 C146.149887,228.248016 146.567963,220.582733 146.938187,212.459381 
								 z" />
									 <path fill="#54C3E9" opacity="1.000000" stroke="none" d="
								 M0.999998,127.399994 
									 C2.303789,125.798622 3.548713,124.524048 4.927191,123.415550 
									 C6.441411,122.197906 8.065030,120.172371 9.664325,120.149750 
									 C26.557997,119.910881 43.456329,120.001846 60.448738,120.001846 
									 C56.933834,129.605728 55.041027,130.999832 45.778549,130.999817 
									 C31.164804,130.999802 16.551060,130.999741 1.468657,130.999847 
									 C1.000000,129.933334 1.000000,128.866653 0.999998,127.399994 
								 z" />
									 <path fill="#7B94B9" opacity="1.000000" stroke="none" d="
								 M792.000000,102.666656 
									 C790.594177,104.531128 788.985474,105.924812 787.832214,107.627029 
									 C786.268860,109.934418 784.619629,111.126671 781.547241,111.090561 
									 C765.151489,110.897842 748.752258,110.999748 732.239502,110.999748 
									 C734.535156,103.081909 737.110107,100.998413 744.220764,100.999779 
									 C759.834717,101.002762 775.448730,101.007225 791.531372,101.005547 
									 C792.000000,101.444443 792.000000,101.888893 792.000000,102.666656 
								 z" />
									 <path fill="#7891B6" opacity="1.000000" stroke="none" d="
								 M472.026550,22.636885 
									 C467.667969,24.487720 463.618500,24.823961 459.471283,21.169460 
									 C447.166992,10.327069 432.562378,4.230599 416.221802,1.310769 
									 C421.354919,1.000000 426.709869,1.000000 432.532410,1.000002 
									 C433.185760,1.595887 433.278198,2.662140 433.570709,2.720173 
									 C448.202820,5.623274 460.503754,13.039781 472.026550,22.636885 
								 z" />
									 <path fill="#7993B8" opacity="1.000000" stroke="none" d="
								 M739.458069,266.000000 
									 C740.946350,262.589081 742.892700,259.178162 744.954346,255.447342 
									 C748.608459,255.127441 752.147156,255.127441 756.385376,255.127441 
									 C754.014099,258.905945 752.015503,262.090637 750.008423,265.637665 
									 C746.638733,266.000000 743.277405,266.000000 739.458069,266.000000 
								 z" />
									 <path fill="#7993B7" opacity="1.000000" stroke="none" d="
								 M214.460632,266.000000 
									 C216.045609,262.647644 218.091232,259.295288 220.195236,255.598297 
									 C223.715485,255.253677 227.177338,255.253677 231.424011,255.253677 
									 C229.232803,258.928223 227.272171,262.216125 225.655762,265.752014 
									 C222.307098,266.000000 218.614182,266.000000 214.460632,266.000000 
								 z" />
									 <path fill="#3376A0" opacity="1.000000" stroke="none" d="
								 M682.437500,266.000000 
									 C682.000000,266.000000 681.767578,265.654083 681.768066,265.446045 
									 C683.955505,265.354828 686.142517,265.471710 688.664795,265.794312 
									 C686.958313,266.000000 684.916687,266.000000 682.437500,266.000000 
								 z" />
									 <path fill="#7A93B8" opacity="1.000000" stroke="none" d="
								 M728.001953,175.516953 
									 C717.138550,176.597046 717.117065,176.596985 717.144287,166.002533 
									 C717.202393,143.365189 717.167480,120.726440 717.454651,98.091866 
									 C717.513489,93.452065 716.469666,91.163261 711.459595,91.910172 
									 C706.933289,92.584961 707.486023,89.325729 707.322754,86.474579 
									 C707.137024,83.232262 708.003113,81.188995 711.709045,81.775352 
									 C716.575745,82.545357 717.494080,80.132309 717.447083,75.786911 
									 C717.319580,63.976612 717.651001,52.161861 717.747742,40.348446 
									 C717.807190,33.093811 717.764099,33.084797 724.830017,33.393444 
									 C725.654053,33.429443 726.471130,33.625553 727.673035,33.887871 
									 C728.054626,36.828613 728.054626,39.628914 728.054626,42.782562 
									 C737.914124,42.782562 747.506531,42.782562 758.020874,42.782562 
									 C755.750671,46.209019 754.080444,49.104420 751.998840,51.665451 
									 C751.286255,52.542210 749.549500,52.921062 748.269470,52.945621 
									 C741.787048,53.069973 735.300903,53.002846 728.409180,53.002846 
									 C728.409180,87.936447 728.409180,122.728226 728.409180,157.470963 
									 C731.805542,157.993393 735.313354,158.072006 738.365967,159.290771 
									 C739.251648,159.644363 738.992065,163.263718 738.985596,165.385147 
									 C738.958740,174.146149 731.682556,167.839966 728.010193,171.202591 
									 C728.010193,171.896729 728.010193,173.487610 728.001953,175.516953 
								 z" />
									 <path fill="#7A93B8" opacity="1.000000" stroke="none" d="
								 M499.014099,177.496368 
									 C488.241211,179.305435 488.193542,179.305176 488.252014,168.547226 
									 C488.344330,151.566299 488.509399,134.585800 488.639313,117.605072 
									 C488.654358,115.637428 488.641327,113.669571 488.641327,111.554993 
									 C486.580048,111.128944 485.014465,110.805359 482.793854,110.346375 
									 C482.793854,108.219330 482.626129,106.091492 482.869080,104.011627 
									 C482.980011,103.062225 483.928680,101.414398 484.450256,101.432610 
									 C489.593292,101.612206 488.698486,98.017609 488.765656,94.946518 
									 C489.039886,82.409218 488.410919,69.989876 484.368378,57.957615 
									 C483.372437,54.993214 482.260895,53.322609 478.504669,52.517311 
									 C475.690704,51.914024 473.661682,47.649460 470.638153,44.300613 
									 C473.535614,43.466015 475.025787,43.036781 477.043243,42.455658 
									 C475.487671,39.724415 473.990387,37.095474 472.139771,33.846237 
									 C475.620361,33.846237 478.386414,33.846237 481.591309,33.938366 
									 C482.075745,34.190624 482.104645,34.357880 482.169342,34.509872 
									 C486.013550,43.540981 493.595520,43.884193 501.767090,43.030319 
									 C503.904938,42.806931 506.085968,42.996658 508.606415,42.996658 
									 C505.853790,50.281288 501.957733,55.223049 492.489838,52.574245 
									 C499.235870,68.498611 499.439178,84.381584 498.915833,100.708389 
									 C507.836304,100.708389 516.421021,100.708389 525.078247,100.708389 
									 C523.772827,107.671776 519.920776,111.002167 513.555664,111.002609 
									 C508.917969,111.002930 504.280273,111.002670 499.013306,111.002670 
									 C499.013306,133.214554 499.013306,155.123108 499.014099,177.496368 
								 z" />
									 <path fill="#7A94B9" opacity="1.000000" stroke="none" d="
								 M203.019379,175.530502 
									 C199.909439,175.971771 196.786743,175.971771 193.148621,175.971771 
									 C193.148621,147.995483 193.148621,120.415169 193.148621,92.303658 
									 C189.771912,92.078194 186.868149,91.884308 183.416611,91.653854 
									 C183.296387,89.994423 183.271576,88.390892 183.048050,86.815567 
									 C182.490707,82.887482 184.093994,81.188118 188.041718,81.766296 
									 C191.941971,82.337524 193.220764,80.756805 193.150574,76.771660 
									 C192.936417,64.611801 193.095657,52.444942 193.148788,40.280975 
									 C193.178177,33.550343 193.213593,33.543583 200.115082,33.654224 
									 C201.111267,33.670197 202.105820,33.789658 203.557434,33.950314 
									 C204.013733,36.841091 204.013733,39.642780 204.013733,42.788094 
									 C213.627548,42.788094 222.906998,42.788094 232.269363,42.788094 
									 C230.207214,51.177952 227.933167,52.999004 219.877045,53.001759 
									 C215.210541,53.003353 210.544037,53.009666 205.877548,53.022705 
									 C205.549240,53.023624 205.221146,53.097885 204.255936,53.215988 
									 C203.863235,55.333996 203.063354,57.656868 203.057266,59.981823 
									 C202.974686,91.480919 203.002304,122.980293 203.002701,154.479599 
									 C203.002716,155.450302 203.002716,156.421005 203.002716,157.932358 
									 C206.716110,157.932358 210.118286,157.932358 213.749634,157.932358 
									 C213.749634,162.069519 213.749634,165.674561 213.749634,169.803192 
									 C210.405304,169.803192 206.995743,169.803192 203.006592,169.803192 
									 C203.006592,171.903625 203.006592,173.496429 203.019379,175.530502 
								 z" />
									 <path fill="#53C1E7" opacity="1.000000" stroke="none" d="
								 M308.964050,189.449493 
									 C313.135406,188.648438 317.352112,188.253281 320.959045,187.915268 
									 C323.574402,196.405960 325.124786,204.387573 328.476288,211.523224 
									 C332.114502,219.269287 337.230652,226.366425 342.158844,233.427933 
									 C343.315887,235.085892 346.230347,235.959824 348.474182,236.309494 
									 C351.564514,236.791046 354.865173,236.883728 357.936218,236.346039 
									 C366.778900,234.797913 372.730499,239.083389 378.271881,245.963501 
									 C371.183960,245.963501 364.493439,245.963501 357.485535,245.963501 
									 C361.440002,252.185577 381.350830,260.563110 397.571320,261.965393 
									 C394.992462,262.340240 391.955994,263.177429 389.019348,262.911560 
									 C373.331543,261.491669 358.438110,257.602417 345.352203,248.243866 
									 C343.919220,247.219055 341.636475,247.083572 339.740417,247.056503 
									 C331.284210,246.935638 322.825287,247.004028 313.395203,247.004028 
									 C315.668610,243.283432 316.895081,239.172729 319.637726,237.374542 
									 C322.424530,235.547440 326.706390,236.000671 330.689819,235.401718 
									 C320.162872,224.591660 313.990509,211.450760 310.463287,196.958878 
									 C309.892090,194.612122 309.489807,192.224258 308.964050,189.449493 
								 z" />
									 <path fill="#53C0E6" opacity="1.000000" stroke="none" d="
								 M308.956940,92.508156 
									 C309.232666,91.911652 309.527008,91.701225 309.843445,91.659805 
									 C321.848389,90.088142 321.848694,90.090218 321.848694,101.890305 
									 C321.848724,114.348160 321.848694,126.806015 321.848694,139.610458 
									 C317.252838,139.610458 313.330658,139.610458 309.135681,139.275513 
									 C308.862946,136.470673 308.862946,134.000793 308.862946,131.225372 
									 C292.431519,131.225372 276.149353,131.225372 259.800018,131.225372 
									 C261.570160,123.255730 265.465973,119.998718 272.919250,119.994225 
									 C284.417908,119.987289 295.916565,119.976547 307.415192,119.956055 
									 C307.729004,119.955498 308.042572,119.824921 308.985840,119.614571 
									 C308.985840,110.831871 308.985840,101.902451 308.956940,92.508156 
								 z" />
									 <path fill="#53C1E7" opacity="1.000000" stroke="none" d="
								 M125.976761,52.930061 
									 C111.319672,75.052956 96.662582,97.175858 81.622368,119.877029 
									 C84.266075,120.238213 86.141800,120.494476 88.611679,120.831917 
									 C85.631737,125.464752 84.544678,131.398880 77.016739,130.348434 
									 C75.793968,130.177811 73.594162,131.897491 72.992920,133.252396 
									 C70.095268,139.782196 65.093185,141.052216 58.481415,139.416931 
									 C69.039299,122.687897 79.871941,106.219788 90.734322,89.771324 
									 C97.332947,79.779312 104.521835,70.125328 110.398849,59.727852 
									 C113.968643,53.412273 118.164505,50.788181 125.511887,52.193729 
									 C125.970299,52.581295 125.973534,52.755680 125.976761,52.930061 
								 z" />
									 <path fill="#53C1E7" opacity="1.000000" stroke="none" d="
								 M650.004578,53.013542 
									 C636.587097,73.472633 623.167175,93.930153 609.756714,114.393845 
									 C608.693298,116.016571 607.695251,117.682205 606.372009,119.799789 
									 C608.813171,120.199806 610.551453,120.484642 612.293884,120.770149 
									 C610.708801,127.255257 607.936829,129.578629 602.050659,130.291794 
									 C600.393433,130.492599 598.106079,131.786575 597.487183,133.188232 
									 C594.593018,139.742783 589.708557,141.151199 583.054932,139.265442 
									 C597.137207,117.174492 611.491699,95.421562 625.829590,73.657707 
									 C628.947144,68.925484 632.562073,64.415810 634.950256,59.334713 
									 C637.973145,52.903141 642.517883,50.825924 649.557617,52.320976 
									 C649.998718,52.617683 650.004578,53.013546 650.004578,53.013542 
								 z" />
									 <path fill="#52BFE5" opacity="1.000000" stroke="none" d="
								 M650.471497,52.975750 
									 C650.004578,53.013546 649.998718,52.617683 649.998413,52.419735 
									 C651.703430,49.761154 653.408691,47.300526 655.513306,44.263584 
									 C651.965576,44.093914 649.106323,43.957176 645.512146,43.785286 
									 C647.869263,40.263035 649.782898,37.140862 652.004578,34.255947 
									 C652.611206,33.468269 654.269409,32.853645 655.231201,33.077618 
									 C662.532532,34.777847 665.238647,29.882507 668.214966,24.265810 
									 C665.089905,24.265810 662.360657,24.265810 658.568237,24.265810 
									 C663.107666,17.174879 666.708435,10.445180 671.511780,4.725451 
									 C672.938416,3.026704 677.745667,4.166962 681.453369,4.056615 
									 C678.055908,10.447820 674.208984,16.788769 670.054932,23.635874 
									 C673.073669,23.815556 675.637695,23.968178 678.229004,24.122421 
									 C675.924500,31.658571 673.805115,33.390095 666.744019,33.588959 
									 C662.508118,33.708252 660.641235,35.621864 657.707520,43.146141 
									 C663.945618,43.146141 670.007141,43.146141 676.231567,43.146141 
									 C673.029053,51.969337 671.708679,52.944145 663.437622,52.943619 
									 C659.271240,52.943352 655.104797,52.939941 650.471497,52.975750 
								 z" />
									 <path fill="#7992B7" opacity="1.000000" stroke="none" d="
								 M410.527252,262.934753 
									 C414.396973,261.985687 418.743988,261.200714 423.034424,260.178253 
									 C449.398193,253.895523 468.490265,238.461166 480.469055,214.216843 
									 C484.087189,206.893967 483.973602,206.837845 492.742035,207.854675 
									 C484.724976,230.905853 469.139740,246.645828 446.775269,256.179657 
									 C435.232910,261.100128 423.286377,262.703400 410.527252,262.934753 
								 z" />
									 <path fill="#54C3E9" opacity="1.000000" stroke="none" d="
								 M578.787720,130.409393 
									 C560.848938,130.788315 543.094849,130.788315 524.532227,130.788315 
									 C526.865356,127.307793 528.806702,124.227211 530.972107,121.313225 
									 C531.504333,120.597069 532.766418,120.060165 533.695679,120.056114 
									 C550.660767,119.982117 567.626221,120.002083 585.530579,120.002083 
									 C583.104553,123.711876 581.038574,126.871178 578.787720,130.409393 
								 z" />
									 <path fill="#54C3E9" opacity="1.000000" stroke="none" d="
								 M79.000458,33.999062 
									 C72.083336,33.999062 65.666061,33.999062 58.340134,33.999062 
									 C60.408154,30.449823 61.842510,27.575880 63.698730,25.006737 
									 C64.433678,23.989517 66.102104,23.094692 67.352516,23.085369 
									 C84.142776,22.960169 100.934273,23.001503 117.774429,23.001503 
									 C116.773087,30.103294 112.657249,33.997818 106.483261,33.998718 
									 C97.488937,34.000027 88.494614,33.999062 79.000458,33.999062 
								 z" />
									 <path fill="#54C3E9" opacity="1.000000" stroke="none" d="
								 M609.000427,22.999659 
									 C620.568054,22.999659 631.635864,22.999659 642.672791,22.999659 
									 C642.741211,23.790516 642.883545,24.150896 642.778809,24.412186 
									 C639.358521,32.941841 632.952515,34.716507 624.214966,34.207718 
									 C610.649353,33.417797 597.003784,33.999062 582.448364,33.999062 
									 C584.899780,30.262476 586.843994,27.008442 589.129944,24.015459 
									 C589.713135,23.252008 591.374939,23.064821 592.549133,23.043016 
									 C597.864746,22.944313 603.183167,22.999733 609.000427,22.999659 
								 z" />
									 <path fill="#7B94B9" opacity="1.000000" stroke="none" d="
								 M263.174500,107.322601 
									 C261.336670,108.740524 259.768036,110.827797 258.170074,110.850502 
									 C241.366928,111.089256 224.559067,110.998100 207.706161,110.998100 
									 C210.089310,103.084373 212.722595,100.999649 220.186768,100.999619 
									 C235.498459,100.999557 250.810165,100.999603 266.907776,100.999603 
									 C265.584290,103.295868 264.507172,105.164658 263.174500,107.322601 
								 z" />
									 <path fill="#50BAE1" opacity="1.000000" stroke="none" d="
								 M308.938477,150.515564 
									 C312.342438,149.841873 315.793182,149.389465 319.206665,149.585678 
									 C320.115021,149.637909 321.614532,151.662735 321.641083,152.809692 
									 C321.813416,160.262863 321.591461,167.724075 321.637451,175.181808 
									 C321.653625,177.796906 320.523407,178.750061 318.041656,178.622833 
									 C315.233276,178.478851 312.418884,178.452087 309.255188,178.162842 
									 C308.925964,168.960831 308.948639,159.970352 308.938477,150.515564 
								 z" />
									 <path fill="#51BDE3" opacity="1.000000" stroke="none" d="
								 M574.912781,150.352310 
									 C578.433777,149.759689 581.843323,149.500015 586.663452,149.132919 
									 C583.129028,154.613327 580.283264,158.935150 577.532349,163.316544 
									 C574.641663,167.920593 571.955383,172.658676 568.907288,177.153397 
									 C568.292786,178.059540 566.476074,178.450165 565.180847,178.527023 
									 C563.059387,178.652924 560.911072,178.326706 558.385071,178.086533 
									 C562.269653,170.878815 566.522766,163.763290 570.829712,156.680435 
									 C572.074219,154.633789 573.473206,152.681061 574.912781,150.352310 
								 z" />
									 <path fill="#51BDE3" opacity="1.000000" stroke="none" d="
								 M50.880703,150.347015 
									 C54.322552,149.773972 57.676598,149.535309 62.303276,149.206070 
									 C57.909821,155.855545 54.300659,161.311523 50.699043,166.772491 
									 C49.425018,168.704239 47.690880,170.491287 46.994656,172.615723 
									 C44.860226,179.128632 40.184315,179.448624 34.310139,178.118225 
									 C36.288441,173.639862 38.443024,169.196976 41.037350,165.027710 
									 C44.090107,160.121719 47.524174,155.453003 50.880703,150.347015 
								 z" />
									 <path fill="#51BCE3" opacity="1.000000" stroke="none" d="
								 M126.446777,52.937401 
									 C125.973534,52.755680 125.970299,52.581295 125.964447,52.145309 
									 C127.502594,49.448421 129.043365,47.013142 130.910080,44.062679 
									 C127.696617,44.062679 124.981956,44.062679 122.155952,44.062679 
									 C124.879654,34.842201 127.477356,32.974884 137.569092,33.008862 
									 C136.502151,36.075970 134.980469,39.125629 133.165771,42.762535 
									 C139.307587,42.762535 145.297287,42.762535 151.397736,42.762535 
									 C149.990784,50.285072 146.948227,52.951321 140.365265,52.952553 
									 C135.882431,52.953392 131.399612,52.947578 126.446777,52.937401 
								 z" />
									 <path fill="#53C0E6" opacity="1.000000" stroke="none" d="
								 M156.590897,4.006942 
									 C154.795197,7.956938 152.580688,11.919433 150.277237,15.829537 
									 C148.875061,18.209711 147.335754,20.509094 145.405731,23.559666 
									 C148.655029,23.802826 151.153397,23.989788 153.701309,24.180460 
									 C150.818787,32.893734 149.489700,33.739021 139.138306,33.160286 
									 C140.373322,30.124166 142.061813,27.237635 144.000015,23.924210 
									 C140.457199,23.924210 137.525238,23.924210 134.094818,23.924210 
									 C138.247620,17.639009 141.641693,11.286284 146.302094,6.063544 
									 C148.097107,4.051939 152.771896,4.610064 156.590897,4.006942 
								 z" />
									 <path fill="#51BDE3" opacity="1.000000" stroke="none" d="
								 M33.930664,189.518539 
									 C37.241108,188.657440 40.594894,188.259827 44.764282,187.765503 
									 C44.764282,196.037003 44.764282,203.469025 44.779518,211.357605 
									 C41.361008,211.814178 37.927261,211.814178 33.974007,211.814178 
									 C33.974007,204.435516 33.974007,197.208755 33.930664,189.518539 
								 z" />
									 <path fill="#53C2E8" opacity="1.000000" stroke="none" d="
								 M557.989807,189.483337 
									 C561.359802,188.630203 564.737183,188.243927 568.975403,187.759216 
									 C568.975403,195.954468 568.975403,203.462769 568.936768,211.430862 
									 C565.444031,211.890640 561.989929,211.890640 557.997253,211.890640 
									 C557.997253,204.448029 557.997253,197.199112 557.989807,189.483337 
								 z" />
									 <path fill="#7A93B8" opacity="1.000000" stroke="none" d="
								 M727.053406,235.520065 
									 C717.060730,237.190659 717.060730,237.190659 717.060242,227.538483 
									 C717.060181,225.559525 717.060242,223.580566 717.060242,221.601608 
									 C717.060303,211.705826 717.060303,211.705826 727.575806,211.983368 
									 C727.696594,219.712631 727.356934,227.383835 727.053406,235.520065 
								 z" />
									 <path fill="#7B94B9" opacity="1.000000" stroke="none" d="
								 M203.037064,235.514465 
									 C192.698700,237.202698 192.709045,237.202835 192.846405,227.068985 
									 C192.889282,223.905090 193.145447,220.708344 192.796402,217.583313 
									 C192.273499,212.901428 194.143509,211.187012 198.658417,211.842087 
									 C199.802612,212.008102 200.986267,211.902267 202.612289,211.975037 
									 C203.051895,219.702042 203.031006,227.375305 203.037064,235.514465 
								 z" />
									 <path fill="#7892B7" opacity="1.000000" stroke="none" d="
								 M204.059326,22.478874 
									 C201.213028,23.257286 198.322540,23.853218 195.468765,23.711212 
									 C194.638565,23.669901 193.306976,21.550200 193.245651,20.330889 
									 C192.990341,15.254663 193.132034,10.158466 193.130478,4.611357 
									 C196.563370,4.153121 199.993881,4.153121 204.029144,4.153121 
									 C204.029144,10.247040 204.029144,16.131105 204.059326,22.478874 
								 z" />
									 <path fill="#7A93B8" opacity="1.000000" stroke="none" d="
								 M728.074829,22.478676 
									 C725.439148,23.250174 722.731384,23.860870 720.073914,23.689949 
									 C719.243896,23.636566 717.949890,21.498367 717.898132,20.271084 
									 C717.683899,15.192125 717.864380,10.096530 717.954956,4.548203 
									 C721.135559,4.089358 724.261169,4.089358 728.022156,4.089358 
									 C728.022156,10.193633 728.022156,16.104916 728.074829,22.478676 
								 z" />
									 <path fill="#7791B6" opacity="1.000000" stroke="none" d="
								 M750.554932,211.914795 
									 C750.899353,210.367416 751.920654,207.505051 752.447388,207.593338 
									 C760.273621,208.904999 762.153015,202.767746 765.167847,197.589142 
									 C768.688721,197.250076 772.132507,197.250076 776.409180,197.250076 
									 C774.414368,200.567841 773.258423,204.378098 770.690247,206.231659 
									 C768.115845,208.089706 764.132141,207.995117 760.258667,208.871094 
									 C760.139160,209.422546 759.880554,210.615906 759.586670,211.972168 
									 C756.568848,211.972168 753.785278,211.972168 750.554932,211.914795 
								 z" />
									 <path fill="#7993B8" opacity="1.000000" stroke="none" d="
								 M226.448700,211.954620 
									 C226.694305,210.421371 227.599609,207.559723 228.072220,207.629486 
									 C235.888519,208.783142 237.892502,202.680191 240.978165,197.451035 
									 C244.630463,197.123581 248.182648,197.123581 251.963470,197.123581 
									 C246.574265,207.807999 246.574265,207.807999 236.683029,208.115219 
									 C236.285049,209.261978 235.843506,210.534271 235.338242,211.990219 
									 C232.502884,211.990219 229.704971,211.990219 226.448700,211.954620 
								 z" />
									 <path fill="#7993B7" opacity="1.000000" stroke="none" d="
								 M737.529053,33.928619 
									 C739.035217,30.516733 740.991211,27.158890 743.012451,23.461887 
									 C746.554626,23.122730 750.031494,23.122730 753.532166,23.122730 
									 C751.826904,31.589882 748.265503,34.052368 737.529053,33.928619 
								 z" />
									 <path fill="#7A93B7" opacity="1.000000" stroke="none" d="
								 M504.484802,188.945908 
									 C505.967133,185.525955 507.904541,182.147354 509.955139,178.450134 
									 C513.546082,178.131500 517.023865,178.131500 520.523193,178.131500 
									 C518.061890,186.839569 514.886292,189.038925 504.484802,188.945908 
								 z" />
									 <path fill="#7993B7" opacity="1.000000" stroke="none" d="
								 M502.529236,207.928314 
									 C504.035614,204.516586 505.991791,201.159134 508.012909,197.462463 
									 C511.554749,197.123260 515.031616,197.123260 518.540466,197.123260 
									 C515.895813,206.305527 513.370117,208.053223 502.529236,207.928314 
								 z" />
									 <path fill="#7993B8" opacity="1.000000" stroke="none" d="
								 M245.526001,188.928177 
									 C247.053833,185.531174 249.032150,182.188797 251.083649,178.509094 
									 C254.633987,178.171753 258.111176,178.171753 261.609375,178.171753 
									 C258.465454,187.793488 256.632751,189.054901 245.526001,188.928177 
								 z" />
									 <path fill="#7993B8" opacity="1.000000" stroke="none" d="
								 M496.614075,33.891640 
									 C498.100372,30.492502 500.029114,27.151781 502.019104,23.467655 
									 C505.550568,23.124250 509.020813,23.124250 512.512634,23.124250 
									 C510.926392,31.522600 507.183746,34.118877 496.614075,33.891640 
								 z" />
									 <path fill="#7A93B7" opacity="1.000000" stroke="none" d="
								 M209.519714,246.930450 
									 C211.030930,243.525375 212.992935,240.175735 215.056641,236.498901 
									 C218.624115,236.171722 222.089905,236.171722 225.572723,236.171722 
									 C222.860733,245.016754 219.914093,247.050629 209.519714,246.930450 
								 z" />
									 <path fill="#7A93B8" opacity="1.000000" stroke="none" d="
								 M770.416382,188.963043 
									 C771.862915,185.514038 773.764893,182.092697 775.838013,178.386230 
									 C779.440613,178.101074 782.872192,178.101074 786.349304,178.101074 
									 C783.181641,187.490936 780.973633,189.028793 770.416382,188.963043 
								 z" />
									 <path fill="#7992B7" opacity="1.000000" stroke="none" d="
								 M734.402954,246.968201 
									 C735.852661,243.515289 737.759155,240.090820 739.836670,236.382889 
									 C743.241760,236.099426 746.475952,236.099426 749.823120,236.099426 
									 C746.557373,246.137878 745.293030,247.033279 734.402954,246.968201 
								 z" />
									 <path fill="#7993B8" opacity="1.000000" stroke="none" d="
								 M213.471481,33.944454 
									 C214.757614,30.590654 216.493118,27.278564 218.243408,23.609997 
									 C221.687149,23.253519 225.116089,23.253519 228.545883,23.253519 
									 C228.240555,30.452805 223.344620,34.036560 213.471481,33.944454 
								 z" />
									 <path fill="#53C0E6" opacity="1.000000" stroke="none" d="
								 M548.383301,178.102051 
									 C546.834167,181.463272 544.848511,184.767914 542.796936,188.415100 
									 C539.598633,188.757645 536.466187,188.757645 533.333801,188.752594 
									 C535.559204,180.112686 538.585327,177.896454 548.383301,178.102051 
								 z" />
									 <path fill="#53C0E6" opacity="1.000000" stroke="none" d="
								 M292.455627,178.059021 
									 C290.921387,181.457687 288.943878,184.807312 286.896851,188.496765 
									 C283.678558,188.836609 280.529816,188.836609 277.361969,188.836609 
									 C280.256287,180.050278 283.085907,177.967865 292.455627,178.059021 
								 z" />
									 <path fill="#53C0E7" opacity="1.000000" stroke="none" d="
								 M23.505032,178.041565 
									 C22.167999,181.356277 20.389061,184.635605 18.598549,188.269653 
									 C15.282144,188.801102 11.977312,188.977814 8.574162,189.159790 
									 C11.506641,179.902710 14.056813,177.976028 23.505032,178.041565 
								 z" />
									 <path fill="#53C1E7" opacity="1.000000" stroke="none" d="
								 M562.466370,139.058594 
									 C561.150452,142.375519 559.396851,145.643265 557.609863,149.261749 
									 C554.278992,149.794159 550.981506,149.975830 547.584167,150.163025 
									 C550.471191,140.945724 553.080383,138.969345 562.466370,139.058594 
								 z" />
									 <path fill="#53C0E6" opacity="1.000000" stroke="none" d="
								 M38.461151,139.057800 
									 C36.925449,142.457428 34.946236,145.807465 32.897636,149.497375 
									 C29.680044,149.837250 26.531841,149.837250 23.364750,149.837250 
									 C26.239445,141.065460 29.090355,138.967255 38.461151,139.057800 
								 z" />
									 <path fill="#53C1E7" opacity="1.000000" stroke="none" d="
								 M296.571594,139.024933 
									 C295.300171,142.386200 293.578918,145.724380 291.792267,149.406494 
									 C288.589386,149.750427 285.451904,149.750427 282.300110,149.750427 
									 C284.641296,141.306061 287.638977,138.984070 296.571594,139.024933 
								 z" />
									 <path fill="#768FB5" opacity="1.000000" stroke="none" d="
								 M497.005035,196.547394 
									 C493.676727,197.383224 490.355408,197.810242 486.962830,198.246414 
									 C486.813080,187.989410 487.715881,187.230087 497.793945,188.792236 
									 C497.745331,191.416718 497.378693,193.777649 497.005035,196.547394 
								 z" />
									 <path fill="#768FB5" opacity="1.000000" stroke="none" d="
								 M760.088989,196.504059 
									 C757.439209,197.250198 754.597534,198.162369 752.098389,197.586884 
									 C751.042480,197.343750 750.245728,193.977127 750.210388,192.014420 
									 C750.187500,190.743958 751.558716,188.594849 752.655334,188.338760 
									 C754.814819,187.834457 757.218018,188.373642 759.824097,188.768890 
									 C760.097046,191.393951 760.066345,193.731308 760.088989,196.504059 
								 z" />
									 <path fill="#7892B7" opacity="1.000000" stroke="none" d="
								 M203.076416,254.504272 
									 C200.411621,255.251053 197.558716,256.168518 195.045044,255.596176 
									 C193.928894,255.342041 192.943222,252.080414 192.941650,250.183060 
									 C192.940506,248.816101 194.439804,246.592987 195.669006,246.269745 
									 C197.791046,245.711716 200.223373,246.333710 202.825592,246.757874 
									 C203.092575,249.392975 203.059479,251.730820 203.076416,254.504272 
								 z" />
									 <path fill="#7891B6" opacity="1.000000" stroke="none" d="
								 M727.084595,254.505127 
									 C724.030396,255.377640 720.922302,255.814835 717.928772,256.235901 
									 C715.571655,246.321228 716.662109,245.208511 726.852783,246.745377 
									 C727.103088,249.394745 727.066895,251.732269 727.084595,254.505127 
								 z" />
									 <path fill="#7791B6" opacity="1.000000" stroke="none" d="
								 M236.083282,196.504395 
									 C233.447998,197.254532 230.628036,198.165466 228.134888,197.609894 
									 C227.031479,197.363998 226.040192,194.151840 226.030365,192.280807 
									 C226.023163,190.910172 227.467560,188.670807 228.675888,188.345642 
									 C230.774948,187.780731 233.191696,188.396332 235.794128,188.784851 
									 C236.085876,191.391388 236.058731,193.730026 236.083282,196.504395 
								 z" />
									 <path fill="#6B85AB" opacity="1.000000" stroke="none" d="
								 M761.025269,177.545746 
									 C757.291504,178.582214 753.387146,180.494415 750.030212,176.485565 
									 C753.678101,176.440201 757.331360,176.779816 761.025269,177.545746 
								 z" />
									 <path fill="#6B85AB" opacity="1.000000" stroke="none" d="
								 M236.052505,177.515472 
									 C232.467163,178.636154 228.719528,180.407654 225.372070,176.556778 
									 C228.828873,176.516983 232.413116,176.803787 236.052505,177.515472 
								 z" />
									 <path fill="#53C0E7" opacity="1.000000" stroke="none" d="
								 M407.051605,38.058167 
									 C429.827240,37.849514 450.491486,57.701462 451.483490,81.336502 
									 C448.517303,81.577042 445.503998,81.821396 442.229858,82.086899 
									 C442.229858,85.267860 442.229858,88.198563 442.229858,91.590012 
									 C445.289246,91.805000 448.339569,92.019348 451.683136,92.254303 
									 C451.775726,94.116341 451.929382,95.737831 451.926086,97.359009 
									 C451.871429,124.305557 451.872040,151.252533 451.705566,178.198456 
									 C451.545898,204.046188 431.928467,224.590134 406.312164,225.076080 
									 C405.354736,225.000778 405.143005,225.015213 404.931305,225.029648 
									 C404.931305,225.029648 404.989075,224.995285 404.859283,224.804047 
									 C404.459717,224.389008 404.189972,224.165222 404.098572,223.609467 
									 C411.835754,221.338333 418.477692,217.723206 424.141327,212.348663 
									 C434.309814,202.699203 438.892365,190.624298 438.954590,176.839203 
									 C439.086212,147.691772 439.038727,118.543205 438.951202,89.395447 
									 C438.937469,84.812325 438.576508,80.196960 437.951447,75.654938 
									 C435.677612,59.131966 420.447510,43.162216 404.226196,39.628780 
									 C405.306458,38.963959 406.179016,38.511066 407.051605,38.058167 
								 z" />
									 <path fill="#7993B8" opacity="1.000000" stroke="none" d="
								 M406.597076,37.981079 
									 C406.179016,38.511066 405.306458,38.963959 403.842163,39.698364 
									 C401.005280,40.694469 398.760071,41.409065 396.514862,42.123661 
									 C396.580292,42.414288 396.645691,42.704918 396.711090,42.995548 
									 C398.951263,42.995548 401.191406,42.995548 403.545990,42.995548 
									 C399.958527,52.099121 398.675140,53.004086 389.658875,53.004108 
									 C388.326996,53.004112 386.956207,53.209206 385.670624,52.965233 
									 C381.990143,52.266739 379.543854,54.202694 377.731323,56.862366 
									 C372.503815,64.533195 368.986176,72.848923 368.999542,82.351646 
									 C369.018280,95.670395 369.011139,108.989182 369.014191,122.307953 
									 C369.015442,127.747284 369.014404,133.186615 369.014404,139.098297 
									 C375.277466,139.098297 380.996063,139.098297 386.844757,139.098297 
									 C383.871460,148.015152 378.468536,152.391388 369.002747,149.723297 
									 C369.002747,161.740540 368.736298,172.753128 369.079132,183.746704 
									 C369.409454,194.338943 374.375732,203.134689 381.354919,210.789062 
									 C387.465637,217.490952 395.426422,221.222504 403.920197,223.941422 
									 C404.189972,224.165222 404.459717,224.389008 404.873474,224.834534 
									 C380.274902,226.224213 358.704315,205.205750 358.171234,179.294678 
									 C358.024017,172.138916 358.301575,164.974762 358.178070,157.818008 
									 C358.122162,154.577789 359.243835,151.202896 355.469574,148.456421 
									 C354.237091,147.559586 355.383667,143.006866 355.907593,140.213409 
									 C356.281311,138.221054 358.095978,136.387482 358.133545,134.460922 
									 C358.484009,116.489594 357.743652,98.455658 358.967957,80.552620 
									 C360.698029,55.255009 380.671692,37.860062 406.597076,37.981079 
								 z" />
									 <path fill="#7790B5" opacity="1.000000" stroke="none" d="
								 M460.481873,163.137909 
									 C460.865631,155.724976 466.154724,159.803680 469.154785,159.041092 
									 C472.548706,158.178406 472.766510,160.875031 472.662201,163.371353 
									 C472.594116,165.000366 472.506439,166.628586 472.408142,168.658493 
									 C468.584503,168.658493 465.041718,168.658493 460.884125,168.658493 
									 C460.754517,167.034775 460.616241,165.302429 460.481873,163.137909 
								 z" />
									 <path fill="#7993B8" opacity="1.000000" stroke="none" d="
								 M405.055542,225.164642 
									 C405.143005,225.015213 405.354736,225.000778 405.882416,225.034332 
									 C405.858826,225.154755 405.519318,225.227188 405.055542,225.164642 
								 z" />
									 <path fill="transparent" opacity="1.000000" stroke="none" d="
								 M147.003143,175.983414 
									 C132.977417,175.985016 118.951675,175.986633 104.569534,175.652039 
									 C104.756554,174.697525 105.373077,174.128967 105.832764,173.453644 
									 C119.528290,153.333466 133.208267,133.202728 146.937988,113.537399 
									 C146.991226,134.661896 146.997177,155.322662 147.003143,175.983414 
								 z" />
									 <path fill="#7792B7" opacity="1.000000" stroke="none" d="
								 M146.890717,113.073654 
									 C133.208267,133.202728 119.528290,153.333466 105.832764,173.453644 
									 C105.373077,174.128967 104.756554,174.697525 104.100235,175.639374 
									 C100.864540,175.962906 97.741737,175.962906 93.510841,175.962906 
									 C99.395874,167.124161 104.762627,159.063812 110.947723,149.774399 
									 C103.283104,149.774399 96.830513,149.774399 90.053276,149.774399 
									 C93.381500,140.752182 94.588280,139.115860 102.282768,140.119766 
									 C113.802216,141.622726 120.754936,137.573975 126.577888,127.385986 
									 C134.570511,113.401901 144.471451,100.508026 153.567703,87.155884 
									 C154.476013,85.822594 155.474594,84.550797 157.498138,83.486900 
									 C157.498138,87.720383 157.498138,91.953865 157.142548,96.808266 
									 C153.488205,102.644005 150.189453,107.858826 146.890717,113.073654 
								 z" />
									 <path fill="#54C2E8" opacity="1.000000" stroke="none" d="
								 M146.937988,113.537399 
									 C150.189453,107.858826 153.488205,102.644005 157.017365,97.259750 
									 C157.257797,115.536873 157.267899,133.983414 157.277679,152.429962 
									 C157.278717,154.388535 157.277817,156.347107 157.277817,158.652969 
									 C160.906433,158.841751 163.981491,159.001724 167.378204,159.178436 
									 C167.378204,162.342270 167.378204,165.256348 167.378204,168.782715 
									 C164.316864,168.940491 161.250259,169.098541 157.757553,169.278564 
									 C157.474472,171.366776 157.195755,173.422791 156.840042,176.046875 
									 C153.811951,176.046875 150.865646,176.046875 147.461243,176.015137 
									 C146.997177,155.322662 146.991226,134.661896 146.937988,113.537399 
								 z" />
									 <path fill="transparent" opacity="1.000000" stroke="none" d="
								 M671.017334,175.980881 
									 C657.319092,175.982590 643.620911,175.984299 629.469299,175.614212 
									 C636.696228,163.737030 644.286377,152.170059 652.085815,140.745941 
									 C658.219299,131.762009 664.611145,122.954391 670.936035,114.532623 
									 C670.995056,135.324829 671.006226,155.652847 671.017334,175.980881 
								 z" />
									 <path fill="#7993B8" opacity="1.000000" stroke="none" d="
								 M670.888184,114.068436 
									 C664.611145,122.954391 658.219299,131.762009 652.085815,140.745941 
									 C644.286377,152.170059 636.696228,163.737030 628.999756,175.599915 
									 C625.665283,175.957397 622.346863,175.957397 617.880981,175.957397 
									 C623.843506,167.104935 629.339355,158.945328 635.537781,149.742569 
									 C627.791443,149.742569 621.266479,149.742569 614.527344,149.742569 
									 C617.346497,141.230225 619.169617,139.150970 626.867310,140.118423 
									 C638.397034,141.567490 645.301697,137.376740 651.193237,127.272972 
									 C660.144531,111.922028 670.904907,97.625938 681.972656,83.012115 
									 C681.972656,87.348595 681.972656,91.685081 681.642944,96.667984 
									 C677.838135,102.899078 674.363159,108.483749 670.888184,114.068436 
								 z" />
									 <path fill="#53C1E8" opacity="1.000000" stroke="none" d="
								 M670.936035,114.532608 
									 C674.363159,108.483749 677.838135,102.899078 681.589966,97.126137 
									 C681.866699,117.341637 681.866699,137.745407 681.866699,158.642670 
									 C685.277527,158.822540 688.337097,158.983902 691.688354,159.160629 
									 C691.688354,162.313217 691.688354,165.238098 691.688354,168.808640 
									 C688.760742,168.808640 685.716919,168.808640 682.346802,168.808640 
									 C682.047607,171.299744 681.818298,173.208786 681.478638,176.036758 
									 C678.381775,176.036758 675.157654,176.036758 671.475464,176.008820 
									 C671.006226,155.652847 670.995056,135.324829 670.936035,114.532608 
								 z" />
									 <path fill="transparent" opacity="1.000000" stroke="none" d="
								 M404.098572,223.609467 
									 C395.426422,221.222504 387.465637,217.490952 381.354919,210.789062 
									 C374.375732,203.134689 369.409454,194.338943 369.079132,183.746704 
									 C368.736298,172.753128 369.002747,161.740540 369.002747,149.723297 
									 C378.468536,152.391388 383.871460,148.015152 386.844757,139.098297 
									 C380.996063,139.098297 375.277466,139.098297 369.014404,139.098297 
									 C369.014404,133.186615 369.015442,127.747284 369.014191,122.307953 
									 C369.011139,108.989182 369.018280,95.670395 368.999542,82.351646 
									 C368.986176,72.848923 372.503815,64.533195 377.731323,56.862366 
									 C379.543854,54.202694 381.990143,52.266739 385.670624,52.965233 
									 C386.956207,53.209206 388.326996,53.004112 389.658875,53.004108 
									 C398.675140,53.004086 399.958527,52.099121 403.545990,42.995548 
									 C401.191406,42.995548 398.951263,42.995548 396.711090,42.995548 
									 C396.645691,42.704918 396.580292,42.414288 396.514862,42.123661 
									 C398.760071,41.409065 401.005280,40.694469 403.634491,39.910294 
									 C420.447510,43.162216 435.677612,59.131966 437.951447,75.654938 
									 C438.576508,80.196960 438.937469,84.812325 438.951202,89.395447 
									 C439.038727,118.543205 439.086212,147.691772 438.954590,176.839203 
									 C438.892365,190.624298 434.309814,202.699203 424.141327,212.348663 
									 C418.477692,217.723206 411.835754,221.338333 404.098572,223.609467 
								 M422.407898,170.000671 
									 C423.838531,169.920197 425.269165,169.839722 426.709106,169.758713 
									 C426.709106,165.717010 426.709106,162.011597 426.709106,158.291748 
									 C422.376282,158.291748 418.339294,158.291748 414.297424,158.291748 
									 C414.297424,162.295914 414.297424,166.001587 414.297424,170.000717 
									 C416.878174,170.000717 419.165161,170.000717 422.407898,170.000671 
								 z" />
									 <path fill="#53C3E8" opacity="1.000000" stroke="none" d="
								 M421.929993,170.000702 
									 C419.165161,170.000717 416.878174,170.000717 414.297424,170.000717 
									 C414.297424,166.001587 414.297424,162.295914 414.297424,158.291748 
									 C418.339294,158.291748 422.376282,158.291748 426.709106,158.291748 
									 C426.709106,162.011597 426.709106,165.717010 426.709106,169.758713 
									 C425.269165,169.839722 423.838531,169.920197 421.929993,170.000702 
								 z" />
								 </svg>