<svg width="275" height="85" viewBox="0 0 275 85" fill="none" xmlns="http://www.w3.org/2000/svg">
<path d="M28.0435 28.0967C34.0594 28.0967 39.9082 30.0791 44.6841 33.7373L45.1724 34.1113C47.6414 36.0025 49.7224 38.3523 51.3023 41.0312C53.499 44.7562 54.6577 49.0017 54.6577 53.3262V68.9658C54.6577 72.0516 53.389 75.0017 51.149 77.124C46.9329 81.1182 40.3675 81.243 36.0034 77.4111L35.8531 77.2793C33.3755 75.1038 31.9557 71.9661 31.9556 68.6689V53.085C31.9554 52.0702 31.1325 51.2472 30.1177 51.2471H13.9702C10.9283 51.2471 8.01089 50.0387 5.85989 47.8877C1.49747 43.5253 1.36699 36.4936 5.56497 31.9727L5.69974 31.8271C7.90885 29.4482 11.009 28.0967 14.2554 28.0967H28.0435Z" stroke="#2062C5" stroke-width="5"/>
<path d="M58.3462 54.6074C52.3303 54.6074 46.4815 52.625 41.7056 48.9668L41.2173 48.5928C38.7483 46.7016 36.6673 44.3518 35.0874 41.6729C32.8907 37.9479 31.732 33.7024 31.732 29.3779V13.7383C31.7321 10.6525 33.0007 7.70243 35.2408 5.58008C39.4568 1.58595 46.0222 1.46113 50.3863 5.29297L50.5367 5.4248C53.0143 7.60026 54.4341 10.738 54.4341 14.0352V29.6191C54.4343 30.6339 55.2572 31.4569 56.272 31.457H72.4195C75.4614 31.457 78.3788 32.6654 80.5298 34.8164C84.8922 39.1788 85.0227 46.2105 80.8247 50.7314L80.69 50.877C78.4809 53.2559 75.3808 54.6074 72.1343 54.6074H58.3462Z" stroke="#7E7E7E" stroke-width="5"/>
<path d="M54.6108 54.0576V54.374L54.603 54.0557L54.6108 54.0576Z" stroke="#2062C5" stroke-width="5"/>
<path d="M124.738 52.5928C121.489 52.5928 118.475 52.0839 115.696 51.0662C112.956 50.0093 110.568 48.5219 108.532 46.6038C106.536 44.6858 104.97 42.435 103.835 39.8515C102.7 37.2289 102.132 34.3518 102.132 31.2203C102.132 28.0888 102.7 25.2314 103.835 22.6479C104.97 20.0252 106.536 17.7549 108.532 15.8369C110.568 13.9188 112.956 12.4509 115.696 11.4332C118.475 10.3763 121.489 9.84788 124.738 9.84788C128.535 9.84788 131.921 10.5133 134.896 11.8442C137.91 13.1751 140.415 15.0931 142.411 17.5983L135.013 24.2919C133.682 22.7262 132.214 21.5323 130.609 20.7103C129.044 19.8882 127.282 19.4772 125.325 19.4772C123.642 19.4772 122.096 19.7512 120.686 20.2992C119.277 20.8473 118.064 21.6497 117.046 22.7066C116.068 23.7243 115.285 24.9573 114.697 26.4057C114.149 27.854 113.875 29.4589 113.875 31.2203C113.875 32.9818 114.149 34.5867 114.697 36.035C115.285 37.4833 116.068 38.7359 117.046 39.7928C118.064 40.8106 119.277 41.5934 120.686 42.1414C122.096 42.6895 123.642 42.9635 125.325 42.9635C127.282 42.9635 129.044 42.5524 130.609 41.7304C132.214 40.9084 133.682 39.7145 135.013 38.1488L142.411 44.8424C140.415 47.3084 137.91 49.2265 134.896 50.5965C131.921 51.9274 128.535 52.5928 124.738 52.5928Z" fill="#2062C5"/>
<path d="M147.066 51.7708V8.20384H158.222V51.7708H147.066Z" fill="#2062C5"/>
<path d="M165.472 51.7708V19.947H176.628V51.7708H165.472ZM171.05 16.424C169.015 16.424 167.371 15.8564 166.118 14.7213C164.865 13.5861 164.239 12.1769 164.239 10.4937C164.239 8.81057 164.865 7.40139 166.118 6.26623C167.371 5.13106 169.015 4.56348 171.05 4.56348C173.086 4.56348 174.73 5.11149 175.982 6.20751C177.235 7.26439 177.861 8.63442 177.861 10.3176C177.861 12.0791 177.235 13.547 175.982 14.7213C174.769 15.8564 173.125 16.424 171.05 16.424Z" fill="#2062C5"/>
<path d="M204.605 19.4185C207.071 19.4185 209.302 19.9274 211.298 20.9451C213.295 21.9237 214.86 23.4503 215.996 25.5249C217.17 27.5996 217.757 30.2809 217.757 33.569V51.7708H206.601V35.3891C206.601 33.1188 206.131 31.4748 205.192 30.457C204.292 29.4002 203.019 28.8717 201.375 28.8717C200.201 28.8717 199.125 29.1457 198.146 29.6937C197.167 30.2026 196.404 31.0051 195.856 32.1011C195.308 33.1971 195.034 34.6258 195.034 36.3873V51.7708H183.878V19.947H194.506V28.9892L192.451 26.347C193.664 24.0375 195.328 22.3152 197.441 21.18C199.555 20.0057 201.943 19.4185 204.605 19.4185Z" fill="#2062C5"/>
<path d="M224.761 51.7708V19.947H235.917V51.7708H224.761ZM230.339 16.424C228.304 16.424 226.66 15.8564 225.407 14.7213C224.154 13.5861 223.528 12.1769 223.528 10.4937C223.528 8.81057 224.154 7.40139 225.407 6.26623C226.66 5.13106 228.304 4.56348 230.339 4.56348C232.375 4.56348 234.019 5.11149 235.271 6.20751C236.524 7.26439 237.15 8.63442 237.15 10.3176C237.15 12.0791 236.524 13.547 235.271 14.7213C234.058 15.8564 232.414 16.424 230.339 16.424Z" fill="#2062C5"/>
<path d="M259.431 52.2992C255.908 52.2992 252.757 51.5946 249.978 50.1855C247.238 48.7763 245.085 46.8387 243.519 44.3726C241.954 41.8674 241.171 39.0099 241.171 35.8002C241.171 32.5904 241.954 29.7525 243.519 27.2864C245.085 24.8203 247.238 22.9023 249.978 21.5323C252.757 20.1231 255.908 19.4185 259.431 19.4185C263.032 19.4185 266.144 20.1818 268.767 21.7084C271.39 23.235 273.249 25.3879 274.345 28.1671L265.714 32.5708C264.97 31.0833 264.05 30.0069 262.954 29.3414C261.858 28.6369 260.664 28.2846 259.373 28.2846C258.081 28.2846 256.906 28.5781 255.85 29.1653C254.793 29.7525 253.951 30.6136 253.325 31.7488C252.738 32.8448 252.444 34.1953 252.444 35.8002C252.444 37.4442 252.738 38.8338 253.325 39.969C253.951 41.1041 254.793 41.9653 255.85 42.5524C256.906 43.1396 258.081 43.4332 259.373 43.4332C260.664 43.4332 261.858 43.1005 262.954 42.435C264.05 41.7304 264.97 40.6344 265.714 39.1469L274.345 43.5506C273.249 46.3298 271.39 48.4827 268.767 50.0093C266.144 51.5359 263.032 52.2992 259.431 52.2992Z" fill="#2062C5"/>
<path d="M104.041 83.986V57.9554H107.09L118.766 77.6271H117.13L128.658 57.9554H131.707L131.745 83.986H128.175L128.137 63.5706H128.993L118.729 80.8252H117.019L106.681 63.5706H107.611V83.986H104.041Z" fill="#7E7E7E"/>
<path d="M151.27 83.986V79.8211L151.084 79.0402V71.9376C151.084 70.4253 150.638 69.2601 149.746 68.442C148.878 67.5992 147.564 67.1777 145.804 67.1777C144.639 67.1777 143.498 67.376 142.383 67.7727C141.267 68.1446 140.325 68.6528 139.557 69.2973L138.069 66.6199C139.086 65.8018 140.3 65.182 141.713 64.7606C143.151 64.3143 144.651 64.0912 146.213 64.0912C148.915 64.0912 150.998 64.7482 152.46 66.0621C153.923 67.376 154.654 69.3841 154.654 72.0863V83.986H151.27ZM144.8 84.2091C143.337 84.2091 142.048 83.9612 140.933 83.4654C139.842 82.9696 138.999 82.2878 138.404 81.4202C137.809 80.5277 137.511 79.5236 137.511 78.408C137.511 77.342 137.759 76.3752 138.255 75.5075C138.776 74.6398 139.606 73.9456 140.747 73.425C141.912 72.9044 143.474 72.6441 145.432 72.6441H151.679V75.21H145.581C143.796 75.21 142.594 75.5075 141.974 76.1025C141.354 76.6975 141.044 77.4164 141.044 78.2593C141.044 79.2261 141.428 80.0071 142.197 80.602C142.965 81.1722 144.031 81.4573 145.395 81.4573C146.734 81.4573 147.899 81.1598 148.89 80.5649C149.907 79.9699 150.638 79.1022 151.084 77.9618L151.791 80.4161C151.32 81.5813 150.489 82.5109 149.299 83.2051C148.11 83.8745 146.61 84.2091 144.8 84.2091Z" fill="#7E7E7E"/>
<path d="M166.913 84.2091C165.277 84.2091 163.715 83.986 162.228 83.5398C160.765 83.0935 159.612 82.5481 158.769 81.9036L160.257 79.0774C161.1 79.6476 162.141 80.131 163.38 80.5277C164.62 80.9243 165.884 81.1227 167.173 81.1227C168.834 81.1227 170.024 80.8871 170.743 80.4161C171.487 79.9451 171.859 79.2881 171.859 78.4452C171.859 77.8254 171.636 77.342 171.19 76.9949C170.743 76.6479 170.148 76.3876 169.405 76.214C168.686 76.0405 167.88 75.8917 166.987 75.7678C166.095 75.619 165.203 75.4455 164.31 75.2472C163.418 75.0241 162.599 74.7266 161.856 74.3547C161.112 73.9581 160.517 73.425 160.071 72.7557C159.625 72.0615 159.401 71.1443 159.401 70.0039C159.401 68.8139 159.736 67.7727 160.405 66.8802C161.075 65.9877 162.017 65.306 163.232 64.835C164.471 64.3391 165.934 64.0912 167.62 64.0912C168.909 64.0912 170.21 64.2524 171.524 64.5746C172.863 64.8721 173.954 65.306 174.797 65.8762L173.272 68.7024C172.38 68.1074 171.45 67.6983 170.483 67.4752C169.516 67.2521 168.549 67.1405 167.582 67.1405C166.021 67.1405 164.855 67.4008 164.087 67.9214C163.318 68.4173 162.934 69.0618 162.934 69.8551C162.934 70.5245 163.157 71.0451 163.604 71.417C164.075 71.764 164.67 72.0367 165.388 72.2351C166.132 72.4334 166.95 72.6069 167.843 72.7557C168.735 72.8796 169.628 73.0532 170.52 73.2763C171.413 73.4746 172.218 73.7597 172.937 74.1316C173.681 74.5034 174.276 75.0241 174.722 75.6934C175.193 76.3628 175.429 77.2552 175.429 78.3708C175.429 79.5608 175.082 80.5896 174.388 81.4573C173.693 82.325 172.714 83.0068 171.45 83.5026C170.186 83.9736 168.673 84.2091 166.913 84.2091Z" fill="#7E7E7E"/>
<path d="M186.658 84.2091C184.675 84.2091 183.138 83.6761 182.047 82.6101C180.956 81.5441 180.411 80.0195 180.411 78.0362V59.9635H183.981V77.8874C183.981 78.9534 184.241 79.7715 184.762 80.3417C185.307 80.9119 186.076 81.197 187.067 81.197C188.183 81.197 189.113 80.8871 189.856 80.2674L190.972 82.8332C190.426 83.3043 189.77 83.6513 189.001 83.8745C188.257 84.0976 187.476 84.2091 186.658 84.2091ZM177.064 67.2149V64.2772H189.633V67.2149H177.064Z" fill="#7E7E7E"/>
<path d="M203.41 84.2091C201.303 84.2091 199.444 83.7753 197.832 82.9076C196.246 82.0399 195.006 80.8499 194.114 79.3377C193.246 77.8254 192.812 76.0901 192.812 74.1316C192.812 72.1731 193.233 70.4377 194.076 68.9255C194.944 67.4132 196.122 66.2357 197.609 65.3928C199.121 64.5251 200.82 64.0912 202.704 64.0912C204.613 64.0912 206.298 64.5127 207.761 65.3556C209.224 66.1985 210.364 67.3884 211.182 68.9255C212.025 70.4377 212.447 72.2103 212.447 74.2431C212.447 74.3919 212.434 74.5654 212.409 74.7638C212.409 74.9621 212.397 75.148 212.372 75.3216H195.601V72.7557H210.513L209.063 73.6482C209.087 72.3838 208.827 71.2558 208.282 70.2642C207.736 69.2725 206.98 68.504 206.013 67.9586C205.071 67.3884 203.968 67.1033 202.704 67.1033C201.464 67.1033 200.361 67.3884 199.394 67.9586C198.427 68.504 197.671 69.2849 197.126 70.3014C196.58 71.293 196.308 72.4334 196.308 73.7225V74.3175C196.308 75.6314 196.605 76.809 197.2 77.8502C197.82 78.8667 198.675 79.66 199.766 80.2302C200.857 80.8004 202.109 81.0855 203.522 81.0855C204.687 81.0855 205.741 80.8871 206.683 80.4905C207.649 80.0938 208.492 79.4988 209.211 78.7055L211.182 81.0111C210.29 82.0523 209.174 82.8456 207.835 83.391C206.521 83.9364 205.046 84.2091 203.41 84.2091Z" fill="#7E7E7E"/>
<path d="M217.404 83.986V64.2772H220.825V69.632L220.49 68.2933C221.036 66.9298 221.953 65.8886 223.242 65.1696C224.531 64.4507 226.118 64.0912 228.002 64.0912V67.5496C227.853 67.5248 227.704 67.5124 227.556 67.5124C227.432 67.5124 227.308 67.5124 227.184 67.5124C225.275 67.5124 223.763 68.0826 222.647 69.223C221.531 70.3633 220.974 72.012 220.974 74.1688V83.986H217.404Z" fill="#7E7E7E"/>
</svg>
