<svg width="173" height="56" viewBox="0 0 173 56" fill="none" xmlns="http://www.w3.org/2000/svg">
<path d="M19.3589 18.4486C23.3144 18.4487 27.1601 19.7523 30.3003 22.1576L30.604 22.391C32.2386 23.643 33.6166 25.1984 34.6626 26.972C36.1169 29.438 36.8843 32.2488 36.8843 35.1117V44.8558C36.8843 47.0375 35.9866 49.1239 34.4028 50.6244C31.4223 53.4476 26.7818 53.5353 23.6968 50.8265L23.603 50.7445C21.8555 49.21 20.854 46.9969 20.854 44.6712V34.9613C20.854 34.8492 20.7629 34.7582 20.6509 34.7581H10.5894C8.44405 34.7581 6.38662 33.9059 4.86963 32.389C1.79306 29.3124 1.70112 24.3537 4.66162 21.1654L4.74561 21.0745C6.3004 19.4002 8.48214 18.4486 10.7671 18.4486H19.3589Z" stroke="#282C32" stroke-width="5"/>
<path d="M38.2397 36.8529C34.2842 36.8528 30.4386 35.5492 27.2983 33.1439L26.9946 32.9105C25.36 31.6584 23.982 30.103 22.936 28.3294C21.4818 25.8634 20.7144 23.0527 20.7144 20.1898V10.4456C20.7144 8.26396 21.612 6.17753 23.1958 4.67709C26.1763 1.85384 30.8169 1.76617 33.9019 4.47494L33.9956 4.55697C35.7432 6.09143 36.7446 8.30458 36.7446 10.6302V20.3402C36.7446 20.4522 36.8357 20.5432 36.9478 20.5433H47.0093C49.1546 20.5433 51.212 21.3955 52.729 22.9124C55.8056 25.989 55.8975 30.9477 52.937 34.1361L52.853 34.2269C51.2982 35.9013 49.1165 36.8528 46.8315 36.8529H38.2397Z" stroke="#2062C5" stroke-width="5"/>
<path d="M34.3833 33.7923L39.3744 34.4023V39.2822H34.3833V33.7923Z" fill="#282C32"/>
<path d="M79.6094 34.653C77.585 34.653 75.707 34.336 73.9752 33.7018C72.2679 33.0433 70.7801 32.1164 69.5118 30.9213C68.2679 29.7262 67.2922 28.3237 66.5849 26.7139C65.8776 25.0798 65.5239 23.2871 65.5239 21.3358C65.5239 19.3846 65.8776 17.6041 66.5849 15.9943C67.2922 14.3601 68.2679 12.9455 69.5118 11.7504C70.7801 10.5552 72.2679 9.64057 73.9752 9.00642C75.707 8.34787 77.585 8.0186 79.6094 8.0186C81.9753 8.0186 84.0851 8.43324 85.9388 9.26252C87.8168 10.0918 89.3778 11.2869 90.6217 12.8479L86.0119 17.0187C85.1827 16.0431 84.268 15.2992 83.268 14.787C82.2924 14.2748 81.1948 14.0187 79.9753 14.0187C78.9265 14.0187 77.9631 14.1894 77.085 14.5309C76.207 14.8723 75.4509 15.3723 74.8167 16.0309C74.2069 16.665 73.7191 17.4333 73.3533 18.3358C73.0118 19.2382 72.8411 20.2382 72.8411 21.3358C72.8411 22.4334 73.0118 23.4334 73.3533 24.3359C73.7191 25.2383 74.2069 26.0188 74.8167 26.6773C75.4509 27.3115 76.207 27.7993 77.085 28.1408C77.9631 28.4822 78.9265 28.653 79.9753 28.653C81.1948 28.653 82.2924 28.3969 83.268 27.8847C84.268 27.3725 85.1827 26.6286 86.0119 25.6529L90.6217 29.8237C89.3778 31.3603 87.8168 32.5555 85.9388 33.4091C84.0851 34.2384 81.9753 34.653 79.6094 34.653Z" fill="#282C32"/>
<path d="M93.5223 34.1408V6.9942H100.474V34.1408H93.5223Z" fill="#282C32"/>
<path d="M104.991 34.1408V14.3114H111.942V34.1408H104.991ZM108.467 12.1162C107.198 12.1162 106.174 11.7625 105.394 11.0552C104.613 10.3479 104.223 9.46984 104.223 8.42105C104.223 7.37225 104.613 6.4942 105.394 5.78687C106.174 5.07955 107.198 4.72588 108.467 4.72588C109.735 4.72588 110.759 5.06735 111.54 5.75029C112.32 6.40883 112.711 7.2625 112.711 8.31129C112.711 9.40886 112.32 10.3235 111.54 11.0552C110.784 11.7625 109.759 12.1162 108.467 12.1162Z" fill="#282C32"/>
<path d="M129.375 13.9821C130.911 13.9821 132.301 14.2992 133.545 14.9333C134.789 15.5431 135.765 16.4943 136.472 17.787C137.204 19.0797 137.57 20.7505 137.57 22.7993V34.1408H130.619V23.9334C130.619 22.5188 130.326 21.4944 129.74 20.8602C129.179 20.2017 128.387 19.8724 127.362 19.8724C126.631 19.8724 125.96 20.0431 125.35 20.3846C124.74 20.7017 124.265 21.2017 123.923 21.8846C123.582 22.5675 123.411 23.4578 123.411 24.5554V34.1408H116.46V14.3114H123.082V19.9456L121.801 18.2992C122.557 16.8602 123.594 15.787 124.911 15.0797C126.228 14.3479 127.716 13.9821 129.375 13.9821Z" fill="#282C32"/>
<path d="M141.934 34.1408V14.3114H148.885V34.1408H141.934ZM145.41 12.1162C144.141 12.1162 143.117 11.7625 142.337 11.0552C141.556 10.3479 141.166 9.46984 141.166 8.42105C141.166 7.37225 141.556 6.4942 142.337 5.78687C143.117 5.07955 144.141 4.72588 145.41 4.72588C146.678 4.72588 147.702 5.06735 148.483 5.75029C149.263 6.40883 149.654 7.2625 149.654 8.31129C149.654 9.40886 149.263 10.3235 148.483 11.0552C147.727 11.7625 146.702 12.1162 145.41 12.1162Z" fill="#282C32"/>
<path d="M163.537 34.4701C161.342 34.4701 159.379 34.0311 157.647 33.153C155.939 32.275 154.598 31.0676 153.622 29.531C152.647 27.97 152.159 26.1895 152.159 24.1895C152.159 22.1895 152.647 20.4212 153.622 18.8846C154.598 17.348 155.939 16.1528 157.647 15.2992C159.379 14.4211 161.342 13.9821 163.537 13.9821C165.781 13.9821 167.72 14.4577 169.354 15.4089C170.988 16.3602 172.147 17.7016 172.83 19.4334L167.452 22.1773C166.988 21.2505 166.415 20.5797 165.732 20.1651C165.049 19.726 164.305 19.5065 163.501 19.5065C162.696 19.5065 161.964 19.6895 161.305 20.0553C160.647 20.4212 160.122 20.9578 159.732 21.6651C159.366 22.348 159.183 23.1895 159.183 24.1895C159.183 25.2139 159.366 26.0798 159.732 26.7871C160.122 27.4944 160.647 28.031 161.305 28.3969C161.964 28.7627 162.696 28.9457 163.501 28.9457C164.305 28.9457 165.049 28.7383 165.732 28.3237C166.415 27.8847 166.988 27.2017 167.452 26.2749L172.83 29.0188C172.147 30.7506 170.988 32.092 169.354 33.0433C167.72 33.9945 165.781 34.4701 163.537 34.4701Z" fill="#282C32"/>
<path d="M66.713 54.2142V37.9945H68.613L75.8887 50.252H74.8691L82.0521 37.9945H83.9522L83.9753 54.2142H81.7509L81.7278 41.4933H82.2607L75.8655 52.2447H74.7996L68.3581 41.4933H68.9374V54.2142H66.713Z" fill="#2062C5"/>
<path d="M96.1419 54.2142V51.6191L96.0261 51.1325V46.7068C96.0261 45.7645 95.748 45.0385 95.1919 44.5287C94.6512 44.0035 93.8325 43.7409 92.7358 43.7409C92.0097 43.7409 91.2992 43.8645 90.604 44.1116C89.9089 44.3434 89.3219 44.66 88.8431 45.0617L87.9162 43.3933C88.5495 42.8836 89.3065 42.4974 90.187 42.2348C91.0829 41.9567 92.0175 41.8177 92.9907 41.8177C94.6744 41.8177 95.972 42.2271 96.8834 43.0458C97.7948 43.8645 98.2505 45.1157 98.2505 46.7995V54.2142H96.1419ZM92.1102 54.3532C91.1988 54.3532 90.3955 54.1988 89.7004 53.8898C89.0207 53.5809 88.4955 53.1561 88.1248 52.6154C87.754 52.0593 87.5686 51.4337 87.5686 50.7386C87.5686 50.0743 87.7231 49.4719 88.0321 48.9312C88.3565 48.3906 88.8739 47.958 89.5845 47.6336C90.3105 47.3092 91.2837 47.147 92.5041 47.147H96.3968V48.7458H92.5967C91.4845 48.7458 90.7353 48.9312 90.3492 49.3019C89.963 49.6727 89.7699 50.1207 89.7699 50.6459C89.7699 51.2483 90.0093 51.7349 90.4882 52.1056C90.9671 52.4609 91.6313 52.6386 92.4809 52.6386C93.315 52.6386 94.0411 52.4532 94.659 52.0825C95.2923 51.7117 95.748 51.1711 96.0261 50.4605L96.4663 51.9898C96.1728 52.7158 95.6553 53.2951 94.9138 53.7276C94.1724 54.1447 93.2378 54.3532 92.1102 54.3532Z" fill="#2062C5"/>
<path d="M105.889 54.3532C104.869 54.3532 103.896 54.2142 102.969 53.9362C102.058 53.6581 101.34 53.3183 100.814 52.9166L101.741 51.1556C102.267 51.5109 102.915 51.8121 103.688 52.0593C104.46 52.3065 105.248 52.43 106.051 52.43C107.086 52.43 107.828 52.2833 108.276 51.9898C108.739 51.6963 108.971 51.2869 108.971 50.7617C108.971 50.3755 108.832 50.0743 108.554 49.8581C108.276 49.6418 107.905 49.4796 107.441 49.3715C106.993 49.2633 106.491 49.1706 105.935 49.0934C105.379 49.0007 104.823 48.8926 104.267 48.769C103.711 48.63 103.201 48.4446 102.738 48.2129C102.274 47.9658 101.904 47.6336 101.625 47.2166C101.347 46.784 101.208 46.2125 101.208 45.5019C101.208 44.7604 101.417 44.1116 101.834 43.5555C102.251 42.9994 102.838 42.5746 103.595 42.2811C104.367 41.9722 105.279 41.8177 106.329 41.8177C107.132 41.8177 107.943 41.9181 108.762 42.1189C109.596 42.3043 110.276 42.5746 110.801 42.9299L109.851 44.6909C109.295 44.3202 108.716 44.0653 108.113 43.9263C107.511 43.7873 106.908 43.7177 106.306 43.7177C105.333 43.7177 104.607 43.8799 104.128 44.2043C103.649 44.5133 103.41 44.9149 103.41 45.4092C103.41 45.8263 103.549 46.1507 103.827 46.3824C104.12 46.5987 104.491 46.7686 104.939 46.8922C105.402 47.0157 105.912 47.1239 106.468 47.2166C107.024 47.2938 107.58 47.4019 108.137 47.541C108.693 47.6645 109.195 47.8422 109.643 48.0739C110.106 48.3056 110.477 48.63 110.755 49.0471C111.048 49.4641 111.195 50.0202 111.195 50.7154C111.195 51.4568 110.979 52.0979 110.546 52.6386C110.114 53.1792 109.504 53.604 108.716 53.913C107.928 54.2065 106.986 54.3532 105.889 54.3532Z" fill="#2062C5"/>
<path d="M118.192 54.3532C116.956 54.3532 115.999 54.0211 115.319 53.3569C114.639 52.6926 114.299 51.7426 114.299 50.5068V39.2457H116.524V50.4142C116.524 51.0784 116.686 51.5882 117.01 51.9434C117.35 52.2987 117.829 52.4764 118.447 52.4764C119.142 52.4764 119.721 52.2833 120.185 51.8971L120.88 53.4959C120.54 53.7894 120.131 54.0057 119.652 54.1447C119.189 54.2837 118.702 54.3532 118.192 54.3532ZM112.214 43.7641V41.9336H120.046V43.7641H112.214Z" fill="#2062C5"/>
<path d="M128.63 54.3532C127.317 54.3532 126.159 54.0829 125.155 53.5422C124.166 53.0016 123.394 52.2601 122.838 51.3178C122.297 50.3755 122.027 49.2942 122.027 48.0739C122.027 46.8536 122.289 45.7722 122.814 44.8299C123.355 43.8877 124.089 43.1539 125.016 42.6287C125.958 42.0881 127.016 41.8177 128.19 41.8177C129.38 41.8177 130.43 42.0803 131.341 42.6055C132.253 43.1307 132.963 43.8722 133.473 44.8299C133.998 45.7722 134.261 46.8767 134.261 48.1434C134.261 48.2361 134.253 48.3442 134.238 48.4678C134.238 48.5914 134.23 48.7072 134.215 48.8154H123.764V47.2166H133.056L132.152 47.7727C132.168 46.9848 132.006 46.282 131.666 45.6641C131.326 45.0462 130.855 44.5673 130.252 44.2275C129.665 43.8722 128.978 43.6946 128.19 43.6946C127.418 43.6946 126.73 43.8722 126.128 44.2275C125.525 44.5673 125.054 45.0539 124.714 45.6873C124.375 46.3052 124.205 47.0157 124.205 47.819V48.1897C124.205 49.0084 124.39 49.7422 124.761 50.391C125.147 51.0243 125.68 51.5186 126.36 51.8739C127.039 52.2292 127.819 52.4069 128.7 52.4069C129.426 52.4069 130.082 52.2833 130.669 52.0361C131.272 51.789 131.797 51.4182 132.245 50.9239L133.473 52.3605C132.917 53.0093 132.222 53.5036 131.388 53.8435C130.569 54.1833 129.65 54.3532 128.63 54.3532Z" fill="#2062C5"/>
<path d="M137.35 54.2142V41.9336H139.481V45.2702L139.273 44.436C139.613 43.5864 140.184 42.9377 140.988 42.4897C141.791 42.0417 142.779 41.8177 143.953 41.8177V43.9726C143.861 43.9572 143.768 43.9495 143.675 43.9495C143.598 43.9495 143.521 43.9495 143.444 43.9495C142.254 43.9495 141.312 44.3047 140.617 45.0153C139.922 45.7259 139.574 46.7531 139.574 48.0971V54.2142H137.35Z" fill="#2062C5"/>
</svg>
