<svg width="173" height="56" viewBox="0 0 173 56" fill="none" xmlns="http://www.w3.org/2000/svg">
<path d="M19.3589 18.4498C23.3144 18.4499 27.1601 19.7535 30.3003 22.1588L30.604 22.3922C32.2386 23.6443 33.6166 25.1997 34.6626 26.9733C36.1168 29.4393 36.8843 32.25 36.8843 35.1129V44.857C36.8843 47.0387 35.9866 49.1252 34.4028 50.6256C31.4223 53.4489 26.7817 53.5365 23.6968 50.8277L23.603 50.7457C21.8554 49.2113 20.854 46.9981 20.854 44.6725V34.9625C20.854 34.8505 20.7629 34.7595 20.6509 34.7594H10.5893C8.44403 34.7594 6.38659 33.9072 4.86961 32.3902C1.79304 29.3137 1.7011 24.355 4.6616 21.1666L4.74558 21.0758C6.30038 19.4014 8.48212 18.4499 10.7671 18.4498H19.3589Z" stroke="white" stroke-width="5"/>
<path d="M38.2397 36.8529C34.2842 36.8528 30.4385 35.5492 27.2983 33.1439L26.9946 32.9105C25.36 31.6584 23.982 30.103 22.936 28.3294C21.4818 25.8634 20.7143 23.0527 20.7143 20.1898V10.4456C20.7143 8.26395 21.612 6.17753 23.1958 4.67709C26.1763 1.85383 30.8168 1.76617 33.9018 4.47494L33.9956 4.55697C35.7432 6.09143 36.7446 8.30458 36.7446 10.6302V20.3402C36.7446 20.4522 36.8357 20.5432 36.9477 20.5433H47.0093C49.1546 20.5433 51.212 21.3955 52.729 22.9124C55.8055 25.989 55.8975 30.9477 52.937 34.1361L52.853 34.2269C51.2982 35.9013 49.1165 36.8528 46.8315 36.8529H38.2397Z" stroke="white" stroke-width="5"/>
<path d="M34.3831 33.7942L38.8807 34.4041V39.2841H34.3831V33.7942Z" fill="white"/>
<path d="M79.6094 34.6548C77.585 34.6548 75.7069 34.3377 73.9752 33.7036C72.2679 33.045 70.7801 32.1182 69.5117 30.923C68.2678 29.7279 67.2922 28.3254 66.5849 26.7157C65.8776 25.0815 65.5239 23.2888 65.5239 21.3376C65.5239 19.3863 65.8776 17.6058 66.5849 15.996C67.2922 14.3619 68.2678 12.9472 69.5117 11.7521C70.7801 10.557 72.2679 9.64231 73.9752 9.00816C75.7069 8.34962 77.585 8.02034 79.6094 8.02034C81.9753 8.02034 84.0851 8.43498 85.9387 9.26426C87.8168 10.0935 89.3778 11.2887 90.6217 12.8497L86.0119 17.0204C85.1826 16.0448 84.268 15.3009 83.268 14.7887C82.2924 14.2765 81.1948 14.0204 79.9753 14.0204C78.9265 14.0204 77.9631 14.1911 77.085 14.5326C76.2069 14.8741 75.4508 15.3741 74.8167 16.0326C74.2069 16.6668 73.7191 17.4351 73.3533 18.3375C73.0118 19.24 72.8411 20.24 72.8411 21.3376C72.8411 22.4351 73.0118 23.4352 73.3533 24.3376C73.7191 25.24 74.2069 26.0205 74.8167 26.6791C75.4508 27.3132 76.2069 27.8011 77.085 28.1425C77.9631 28.484 78.9265 28.6547 79.9753 28.6547C81.1948 28.6547 82.2924 28.3986 83.268 27.8864C84.268 27.3742 85.1826 26.6303 86.0119 25.6547L90.6217 29.8255C89.3778 31.3621 87.8168 32.5572 85.9387 33.4109C84.0851 34.2401 81.9753 34.6548 79.6094 34.6548Z" fill="white"/>
<path d="M93.5223 34.1426V6.99594H100.474V34.1426H93.5223Z" fill="white"/>
<path d="M104.991 34.1426V14.3131H111.942V34.1426H104.991ZM108.467 12.118C107.198 12.118 106.174 11.7643 105.394 11.057C104.613 10.3496 104.223 9.47158 104.223 8.42279C104.223 7.374 104.613 6.49594 105.394 5.78861C106.174 5.08129 107.198 4.72763 108.467 4.72763C109.735 4.72763 110.759 5.06909 111.54 5.75203C112.32 6.41057 112.711 7.26424 112.711 8.31303C112.711 9.4106 112.32 10.3252 111.54 11.057C110.784 11.7643 109.759 12.118 108.467 12.118Z" fill="white"/>
<path d="M129.375 13.9838C130.911 13.9838 132.301 14.3009 133.545 14.9351C134.789 15.5448 135.765 16.496 136.472 17.7887C137.204 19.0814 137.57 20.7522 137.57 22.801V34.1426H130.619V23.9352C130.619 22.5205 130.326 21.4961 129.74 20.8619C129.179 20.2034 128.387 19.8741 127.362 19.8741C126.631 19.8741 125.96 20.0449 125.35 20.3863C124.74 20.7034 124.265 21.2034 123.923 21.8864C123.582 22.5693 123.411 23.4595 123.411 24.5571V34.1426H116.46V14.3131H123.082V19.9473L121.801 18.3009C122.557 16.8619 123.594 15.7887 124.911 15.0814C126.228 14.3497 127.716 13.9838 129.375 13.9838Z" fill="white"/>
<path d="M141.934 34.1426V14.3131H148.885V34.1426H141.934ZM145.41 12.118C144.141 12.118 143.117 11.7643 142.337 11.057C141.556 10.3496 141.166 9.47158 141.166 8.42279C141.166 7.374 141.556 6.49594 142.337 5.78861C143.117 5.08129 144.141 4.72763 145.41 4.72763C146.678 4.72763 147.702 5.06909 148.483 5.75203C149.263 6.41057 149.654 7.26424 149.654 8.31303C149.654 9.4106 149.263 10.3252 148.483 11.057C147.727 11.7643 146.702 12.118 145.41 12.118Z" fill="white"/>
<path d="M163.537 34.4719C161.342 34.4719 159.379 34.0328 157.647 33.1548C155.939 32.2767 154.598 31.0694 153.622 29.5328C152.647 27.9718 152.159 26.1913 152.159 24.1913C152.159 22.1912 152.647 20.4229 153.622 18.8863C154.598 17.3497 155.939 16.1546 157.647 15.3009C159.379 14.4229 161.342 13.9838 163.537 13.9838C165.781 13.9838 167.72 14.4594 169.354 15.4107C170.988 16.3619 172.147 17.7034 172.83 19.4351L167.452 22.179C166.988 21.2522 166.415 20.5815 165.732 20.1668C165.049 19.7278 164.305 19.5083 163.501 19.5083C162.696 19.5083 161.964 19.6912 161.305 20.0571C160.647 20.4229 160.122 20.9595 159.732 21.6668C159.366 22.3498 159.183 23.1912 159.183 24.1913C159.183 25.2157 159.366 26.0815 159.732 26.7888C160.122 27.4962 160.647 28.0328 161.305 28.3986C161.964 28.7645 162.696 28.9474 163.501 28.9474C164.305 28.9474 165.049 28.7401 165.732 28.3254C166.415 27.8864 166.988 27.2035 167.452 26.2766L172.83 29.0206C172.147 30.7523 170.988 32.0938 169.354 33.045C167.72 33.9962 165.781 34.4719 163.537 34.4719Z" fill="white"/>
<path d="M66.7129 54.2159V37.9963H68.613L75.8886 50.2537H74.8691L82.0521 37.9963H83.9521L83.9753 54.2159H81.7509L81.7277 41.4951H82.2607L75.8655 52.2464H74.7996L68.3581 41.4951H68.9374V54.2159H66.7129Z" fill="white"/>
<path d="M96.1419 54.2159V51.6208L96.026 51.1342V46.7085C96.026 45.7663 95.748 45.0402 95.1919 44.5305C94.6512 44.0053 93.8325 43.7427 92.7357 43.7427C92.0097 43.7427 91.2992 43.8662 90.604 44.1134C89.9089 44.3451 89.3219 44.6618 88.843 45.0634L87.9162 43.3951C88.5495 42.8853 89.3064 42.4991 90.1869 42.2365C91.0829 41.9585 92.0174 41.8195 92.9906 41.8195C94.6744 41.8195 95.972 42.2288 96.8834 43.0475C97.7947 43.8662 98.2504 45.1175 98.2504 46.8012V54.2159H96.1419ZM92.1101 54.355C91.1987 54.355 90.3955 54.2005 89.7004 53.8915C89.0207 53.5826 88.4955 53.1578 88.1247 52.6171C87.754 52.061 87.5686 51.4354 87.5686 50.7403C87.5686 50.0761 87.7231 49.4736 88.032 48.933C88.3564 48.3923 88.8739 47.9598 89.5845 47.6354C90.3105 47.311 91.2837 47.1488 92.504 47.1488H96.3968V48.7476H92.5967C91.4845 48.7476 90.7353 48.933 90.3491 49.3037C89.963 49.6744 89.7699 50.1224 89.7699 50.6476C89.7699 51.2501 90.0093 51.7366 90.4882 52.1074C90.967 52.4627 91.6313 52.6403 92.4809 52.6403C93.315 52.6403 94.041 52.4549 94.6589 52.0842C95.2923 51.7135 95.748 51.1728 96.026 50.4622L96.4663 51.9915C96.1728 52.7176 95.6553 53.2968 94.9138 53.7294C94.1724 54.1464 93.2378 54.355 92.1101 54.355Z" fill="white"/>
<path d="M105.889 54.355C104.869 54.355 103.896 54.2159 102.969 53.9379C102.058 53.6598 101.34 53.32 100.814 52.9184L101.741 51.1574C102.266 51.5127 102.915 51.8139 103.688 52.061C104.46 52.3082 105.248 52.4318 106.051 52.4318C107.086 52.4318 107.828 52.285 108.276 51.9915C108.739 51.698 108.971 51.2887 108.971 50.7635C108.971 50.3773 108.832 50.0761 108.554 49.8598C108.276 49.6435 107.905 49.4813 107.441 49.3732C106.993 49.2651 106.491 49.1724 105.935 49.0952C105.379 49.0025 104.823 48.8943 104.267 48.7708C103.711 48.6317 103.201 48.4464 102.738 48.2147C102.274 47.9675 101.903 47.6354 101.625 47.2183C101.347 46.7858 101.208 46.2142 101.208 45.5037C101.208 44.7622 101.417 44.1134 101.834 43.5573C102.251 43.0012 102.838 42.5764 103.595 42.2829C104.367 41.9739 105.279 41.8195 106.329 41.8195C107.132 41.8195 107.943 41.9199 108.762 42.1207C109.596 42.3061 110.276 42.5764 110.801 42.9317L109.851 44.6927C109.295 44.3219 108.716 44.0671 108.113 43.928C107.511 43.789 106.908 43.7195 106.306 43.7195C105.333 43.7195 104.607 43.8817 104.128 44.2061C103.649 44.515 103.41 44.9167 103.41 45.411C103.41 45.828 103.549 46.1524 103.827 46.3841C104.12 46.6004 104.491 46.7703 104.939 46.8939C105.402 47.0175 105.912 47.1256 106.468 47.2183C107.024 47.2955 107.58 47.4037 108.136 47.5427C108.693 47.6663 109.195 47.8439 109.643 48.0756C110.106 48.3073 110.477 48.6317 110.755 49.0488C111.048 49.4659 111.195 50.022 111.195 50.7171C111.195 51.4586 110.979 52.0997 110.546 52.6403C110.114 53.181 109.504 53.6058 108.716 53.9147C107.928 54.2082 106.986 54.355 105.889 54.355Z" fill="white"/>
<path d="M118.192 54.355C116.956 54.355 115.999 54.0228 115.319 53.3586C114.639 52.6944 114.299 51.7444 114.299 50.5086V39.2475H116.524V50.4159C116.524 51.0801 116.686 51.5899 117.01 51.9452C117.35 52.3005 117.829 52.4781 118.447 52.4781C119.142 52.4781 119.721 52.285 120.185 51.8988L120.88 53.4976C120.54 53.7911 120.131 54.0074 119.652 54.1464C119.188 54.2855 118.702 54.355 118.192 54.355ZM112.214 43.7658V41.9353H120.046V43.7658H112.214Z" fill="white"/>
<path d="M128.63 54.355C127.317 54.355 126.159 54.0846 125.155 53.544C124.166 53.0033 123.394 52.2619 122.838 51.3196C122.297 50.3773 122.027 49.296 122.027 48.0756C122.027 46.8553 122.289 45.774 122.814 44.8317C123.355 43.8894 124.089 43.1557 125.016 42.6305C125.958 42.0898 127.016 41.8195 128.19 41.8195C129.379 41.8195 130.43 42.0821 131.341 42.6073C132.253 43.1325 132.963 43.874 133.473 44.8317C133.998 45.774 134.261 46.8785 134.261 48.1451C134.261 48.2378 134.253 48.346 134.238 48.4695C134.238 48.5931 134.23 48.709 134.215 48.8171H123.764V47.2183H133.056L132.152 47.7744C132.168 46.9866 132.006 46.2837 131.666 45.6658C131.326 45.048 130.855 44.5691 130.252 44.2292C129.665 43.874 128.978 43.6963 128.19 43.6963C127.418 43.6963 126.73 43.874 126.128 44.2292C125.525 44.5691 125.054 45.0557 124.714 45.689C124.375 46.3069 124.205 47.0175 124.205 47.8207V48.1915C124.205 49.0102 124.39 49.7439 124.761 50.3927C125.147 51.0261 125.68 51.5204 126.36 51.8757C127.039 52.231 127.819 52.4086 128.7 52.4086C129.426 52.4086 130.082 52.285 130.669 52.0379C131.272 51.7907 131.797 51.42 132.245 50.9257L133.473 52.3623C132.917 53.0111 132.222 53.5054 131.388 53.8452C130.569 54.185 129.65 54.355 128.63 54.355Z" fill="white"/>
<path d="M137.35 54.2159V41.9353H139.481V45.2719L139.273 44.4378C139.613 43.5882 140.184 42.9394 140.987 42.4914C141.791 42.0435 142.779 41.8195 143.953 41.8195V43.9744C143.861 43.9589 143.768 43.9512 143.675 43.9512C143.598 43.9512 143.521 43.9512 143.444 43.9512C142.254 43.9512 141.312 44.3065 140.617 45.0171C139.922 45.7276 139.574 46.7549 139.574 48.0988V54.2159H137.35Z" fill="white"/>
</svg>
